<svg xmlns="http://www.w3.org/2000/svg" viewBox="-4849.974 -899.002 244.647 252.425">
  <defs>
    <style>
      .cls-1 {
        fill: #fff;
      }
    </style>
  </defs>
  <g id="Group_9181" data-name="Group 9181" transform="translate(-4990.974 -939.028)">
    <path id="Path_30" data-name="Path 30" class="cls-1" d="M110.941,156.412a2.646,2.646,0,0,0-3.908,0c-7.012,6.552-31.611,28.622-25.4,48.163,10.92-2.759,18.392-18.277,22.875-31.5-1.954,9.655-3.219,18.507-3.219,18.507l6.092-1.264s-1.264.689-6.322,5.747c-3.448,13.449,5.058,28.162,7.472,32.07v1.034l.345-.46.345.46v-1.034c2.644-4.368,11.84-21.15,8.391-34.714,0,0-.575-6.437-1.724-14.139,4.6,11.265,11.725,22.415,22.645,24.829C143.7,186.413,116.458,161.24,110.941,156.412Z" transform="translate(153.024 63.277)"/>
    <path id="Path_31" data-name="Path 31" class="cls-1" d="M140.922,83.218c1.149-7.357,1.149-9.885,2.414-14.253-.8-5.288-2.184-12.069-6.552-17.817C126.094,50.113,123.335,43.1,121.5,43.1c-2.529-.345-7.7,9.541-15.863,9.081a35.6,35.6,0,0,0-4.943,16.667c3.1,15.058,13.679,46.094-29.656,55.52C30.8,127.932,4.019,100.23,2.525,90.345c-7.012,11.265,2.069,29.082,10.69,34.944,10.92,10.92,31.84,16.323,48.853,13.679,35.979-5.633,53.221-22.875,52.876-51.956.115-5.173.92-15.058,7.931-15.058,14.139,0,9.541,41.841-22.415,65.52-23.449,17.472-58.393,22.875-77.819,6.437C39.423,179.314,134.6,164.946,140.922,83.218Z" transform="translate(140.975 46.467)"/>
    <path id="Path_32" data-name="Path 32" class="cls-1" d="M108.346,40.462c.575-10.69,9.541-20.116,20.346-20.116A20.31,20.31,0,0,1,108.346,0,20.31,20.31,0,0,1,88,20.346C98.92,20.346,107.771,29.771,108.346,40.462Z" transform="translate(154.125 40.026)"/>
    <path id="Path_33" data-name="Path 33" class="cls-1" d="M177.307,107.81c-29.312,5.632-31.84,11.61-38.508,19.311,4.023-4.023,10.92-3.448,30.461-5.058,22.99-1.839,24.944,2.3,37.588-8.391C220.068,102.637,214.78,86.2,214.78,86.2,210.3,96.775,206.619,102.293,177.307,107.81Z" transform="translate(161.719 52.911)"/>
    <path id="Path_34" data-name="Path 34" class="cls-1" d="M48.018,185.243c-2.759-4.023-9.081-8.621-17.012-3.334a12.258,12.258,0,1,0,17.012,3.334Z" transform="translate(144.794 66.861)"/>
    <path id="Path_35" data-name="Path 35" class="cls-1" d="M151.183,132.605c-25.633-1.954-36.783,19.426-36.783,19.426s17.127,8.161,25.863,13.219,2.759,10.69,6.207,17.472,13.449,3.908,13.449,3.908a16.229,16.229,0,0,1-7.7-3.908c-2.414-2.069-2.874-7.127-.23-10.46,4.138-3.793,9.771.69,8.506,6.437,2.989-3.563,2.644-6.437,1.609-8.276,4.483,3.1,4.713,12.414-5.288,10.69,4.6,7.012,14.713,1.954,14.943-7.7a10.72,10.72,0,0,0-10.575-10.69A46.6,46.6,0,0,1,145.9,159.5c-2.184-1.034-7.931-3.908-18.277-9.2,11.495-11.495,19.311-5.058,42.415-5.058s27.817-11.035,32.875-23.449C199.346,127.317,187.507,135.479,151.183,132.605Z" transform="translate(158.071 58.232)"/>
    <path id="Path_36" data-name="Path 36" class="cls-1" d="M89.718,106.677c-5.058-11.035-12.414-.115-32.99-7.816C38.106,91.963,12.128,66.445,7.3,33.8c0,0-12.529,25.4-1.839,44.6C11.324,94.032,53.509,125.758,89.718,106.677Z" transform="translate(141.142 45.078)"/>
    <path id="Path_37" data-name="Path 37" class="cls-1" d="M196.486,96.526c16.553-3.1,56.9-10,34.714-64.026,0,0-10.23,40.117-47.243,54.83-20.806,6.322-35.059,19.426-48.853,36.323-11.84,13.1-14.483,26.553-63.8,51.037a15.17,15.17,0,0,1-2.529.92c-3.1.8-11.84,2.069-11.84,2.069-4.828.575-9.426,4.368-10,9.2-1.15,7.587,1.149,10.115,4.6,12.185.345.115,1.379.69,3.448,1.379,8.161,1.264,10.46-5.4,10.46-5.4-6.437,4.138-11.84-1.264-9.771-7.127a4.123,4.123,0,0,0,2.414,4.368,6.287,6.287,0,0,0,4.6-.23s-4.253.46-3.563-4.138c.46-2.644,2.759-3.563,4.6-3.908a7.167,7.167,0,0,1,4.713,4.368c2.3,6.782-3.333,11.61-5.4,13.449,9.2.345,11.495-7.012,10.69-11.495s.345-5.173,1.494-6.322c2.644-1.954,7.012-3.563,10.805-5.058C142.345,154.574,140.736,106.871,196.486,96.526Z" transform="translate(147.943 44.884)"/>
    <rect id="Rectangle_12451" data-name="Rectangle 12451" class="cls-1" width="18.507" height="18.507" transform="translate(330.06 249.46)"/>
  </g>
</svg>
