<svg id="Layer_1" data-name="Layer 1" xmlns="http://www.w3.org/2000/svg" viewBox="0 0 277.49 259.49"><defs><style>.cls-1{fill:red;}</style></defs><title>logo-all</title><path class="cls-1" d="M70.21,154.22c2.51,6.09,7,9.95,14.42,9.83-2.47,4-4.83,7.72-7,11.51-1.61,2.78-3.08,5.67-4.48,8.56a8.62,8.62,0,0,1-8.4,5.2,13.72,13.72,0,0,1-12.81-9.89,8.29,8.29,0,0,1,2.1-8.16C59.29,165.71,64.57,160.17,70.21,154.22Z"/><path class="cls-1" d="M73.1,148.47c.73.19,1.46.35,2.17.59,5.27,1.75,7.3,4.21,10.72,8.55a11.88,11.88,0,0,0,3.1,2.94c-.6.79-6.73,1.73-7.36,4.42-6,.3-7.62-2.4-10.32-8-.6-1.24-.17,1.11-.45-.22,4-3.2.78-7.85.89-8.8Z"/><path class="cls-1" d="M223.73,94.83c-1.95-3.61-4.18-5.77-8-4.12C210.39,93,206,98,202.51,102.53c-1.44,1.87-1.34,3.3-4.64,3.23-3.72-.07-7.25-3.48-9.21-6.54-5.95-9.27-14.83-13.64-24.81-17.66-11.61-3.27-23.83-1.92-35.12,1.62a54.9,54.9,0,0,0-18.07,9.08c-4.78,3.79-6.78,4.8-12.1,2a43.4,43.4,0,0,0-12-4.29c-5.83-1.15-10.1,3.33-10.25,9.27a17.42,17.42,0,0,0,2.29,8.27c.87,1.57,5,4.25,6.87,4.24,3,0,4.66-.94,7.63-1.7,1.9-.48.88-.41,2.46,1.7s.4,1.47-.87,3.26c-3.19,4.48-5.85,5.54-10.85,7.73a22.36,22.36,0,0,0-13.24,21.11c.08,1.53,3.76,2,5.7,2.56a29.1,29.1,0,0,1,14.61,9.86c1.36,1.67,3.24,4.78,5.2,4.2,6-1.77,9.72-7.79,12.12-13.52,1.1-2.64,3.18-4.67,5.25-6.64,2.43-2.32,4.06-.13,6,1.3,1.37,3.82,1.21,4.35,0,7.15a54.27,54.27,0,0,0-3.53,11.07c-1.35,6.4,1.08,10.4,6,12,9.89,2.26,18.13-2.87,16.44-8.08a137.12,137.12,0,0,0-6.45-15c-2.06-3.93-1.45-4.82.61-7.15,2.45-2.76,4.57-2.18,8.41-.5,5.94,2.6,10.45,3.14,16.76,1.78a10.84,10.84,0,0,1,3,0c-.44,3.74,2.12,6.47,4.24,10.45.35.68-.47,1.19-2.06,2.92-4.16,4.36-5.24,8.22-6.78,14-1.48,5.58,2.9,9.45,6.78,10.76a14.84,14.84,0,0,0,12.73-1.11c1.51-.83,6-3.68,6.16-5.45.5-5.9-1.82-12.62-4.08-18.18-2.73-6.72,1-14.65,1-14.65s2.43-6,4-2.94a38.65,38.65,0,0,1,2.11,5.17,96.25,96.25,0,0,0,17.68,31.69,53.43,53.43,0,0,0,8.6,7.93,10.48,10.48,0,0,0,14.58-2.63,10.63,10.63,0,0,0,1.85-5.3c.46-6.63-4.16-20-6.7-26a85,85,0,0,0-16.66-26c-2-2.16-2.32-1.73-.61-4.87,1.63-2.08,1.28-2.17,4.64-2.31,4.82-.2,9.69-.25,14.36-1.32,5.41-1.26,6.56-5.8,5-11.17A48,48,0,0,0,223.73,94.83ZM81.48,142.89c-1.12-.83-2-1.17-2.27-1.78s.41-1.79.77-1.83a2.58,2.58,0,0,1,2.16.79C82.41,140.53,81.83,141.51,81.48,142.89Zm14,9.71a2.21,2.21,0,0,1-1.9-1.08,2.24,2.24,0,0,1,1.06-2c.57-.2,1.45.47,2.65.95-.79,1-1.2,2-1.8,2.1Z"/><path class="cls-1" d="M234.81,107.11c.58-.5,7.22-4.46,7.15-4.69l-8.83-.74,6.73-5.92a67.1,67.1,0,0,0-9.08,0l6.92-6.33c-3.69.66-6.53,1.18-9.38,1.68-.32-.34-.66-.66-1-1,1.38-1.81,3.56-5.8,3.27-6l-9.91,3.1a36.2,36.2,0,0,0-19.05,14.29c-2,2.8-3.6,3.51-6.61,1.92a13.11,13.11,0,0,1-4.54-4C183.91,90,175.18,83.3,164.14,80.42c-19.93-5.19-38.09-.38-54.53,11.51-5.07,3.67-6.47,3.93-11.83.58-9-5.63-19.08-4.83-29.74-5,2.09,1.89,3.6,3.23,5.63,5.07-3.26.14-8.47,1.42-8.68,2,2.4,1.1,4.61,2.25,6.59,3.27L64.47,100c2.76,1,6.92,3,6.91,3.27a39.29,39.29,0,0,0-6.1,2.46l8.16,1.84-5.57,4.64c9.57,1.23,18.3,2.12,27.06-1.74-.23,1.67-.5,3.11-1.37,3.79-3.58,2.82-7,6-11.09,8C73.72,126.52,69,133,69.12,142.78a15.66,15.66,0,0,1-3.7,10.66c-4.76,5.61-9.85,10.94-14.89,16.32a10.75,10.75,0,0,0-3,9.83,17.71,17.71,0,0,0,15,14.25c6,.77,10.47-1.84,13.33-7.11A199.66,199.66,0,0,1,86.92,168a17,17,0,0,1,7.94-6.09c7.27-2.49,12.09-6.93,14.72-14.09a15.41,15.41,0,0,1,3.23-5.1c1.47-1.57,3.93-2.57,5.43-.76a6,6,0,0,1,.46,5.53c-6.1,10-4.85,20.77-4,32.39,1.65-2.21,2.84-3.84,4.49-6.06.5,3.2.84,5.5,1.19,7.8a47.17,47.17,0,0,0,3.7-7.08c1.19,3,2,5.18,3.22,8.16.9-3.11,1.52-5.28,2.36-8.23,1.15,2.79,2,4.74,2.76,6.7.24-.05,1.4-5,1.86-8.16,1.83,1.85,5.31,4.35,5.69,4.24-.48-6-.48-12.17-1.6-18.09-.69-3.58-3.17-6.8-4.76-10.23-.9-1.92-2.3-4-.35-5.95,1.79-1.79,3.87-2,6.47-1a58.26,58.26,0,0,0,11.57,2.79c2.87.38,5.85-.18,8.58-.32a73.64,73.64,0,0,0,3,7.89,3.22,3.22,0,0,1-.55,4.26c-8.14,9.37-9.32,20.69-9,32.9l5.92-5.49c.37,3.65.66,6.53.94,9.41.36.1,2.91-4.28,3.84-6.58.22.07.45.12.67.18.56,2.47,2.58,7.65,3,7.77q1.38-3.71,2.78-7.41l1,.16,2.54,8.13c1.74-3.31.26-7,3.23-9.44,2.61,4,3,3.9,5.88,7.77-.89-5.89-1.45-9.32-.63-14.48A35.85,35.85,0,0,0,179.8,159c-2.68-6-1.26-11.81,0-17.69.14-.65.62-1.66,1.5-1.73,1.17,0,1.56,1.06,1.82,1.76.69,1.92.76,4.11,1.67,5.89,4.1,8.12,8.09,16.34,12.77,24.11,3.65,6.05,8.32,11.46,15.07,14.5,5.24,2.36,11.4,1,14-3.94,1.53-2.91,2.7-6.79,2.14-9.9a100.41,100.41,0,0,0-5.66-20,92,92,0,0,0-17.45-27.65c-1.12-1.21-2.7-3.73-2.12-4.77,1.09-2.2,6.3-2,6.71-1.93a41,41,0,0,0,20.38-3.35c3.83-1.68,10-4,10.19-4.31A24.9,24.9,0,0,0,234.81,107.11Zm-23.63,8.83a18.13,18.13,0,0,0-6.35.53c-3.28.84-4.26,3.13-2.66,6.12a28.93,28.93,0,0,0,4,5.4c6.91,7.61,11.79,16.5,15.68,25.88a95,95,0,0,1,5.05,16.66c1,4.62.36,9.29-3.79,12.58-3.36,2.66-7.37,2.63-11.74,0-5.49-3.33-9.33-8.3-12.76-13.53-5.82-8.84-11.05-18-13.56-28.42-.43-1.82-1.31-4-3.53-3.45a5.72,5.72,0,0,0-3.54,3.5c-1.55,6.44-2.72,12.83.44,19.43a30.51,30.51,0,0,1,2.38,17.45c-.37,2.7-.32,5.46-.48,8.81l-2.26-3.47-4.69,3.17c-2.39-2.13-3.63-1.86-5.73,1.25a15.35,15.35,0,0,0-2.91-3.06c-.63-.4-1.88.18-3,.33-1.62-3.3-2.64-3.57-6.78-.41.65-5.1.84-9.54,1.84-13.79a31,31,0,0,1,8-14.35c1.19-1.25,1.27-2.12.55-3.71-1.53-3.37-2.64-6.92-4.1-10.83a5.29,5.29,0,0,0-1.05.13c-7,1.31-13.86.93-20.4-2.24a7.55,7.55,0,0,0-7.91,1.59c-2.18,2.33-1.58,4.8-.45,7.42a132.72,132.72,0,0,1,5.86,14.37c.86,2.82.36,6.05.48,9.75-2.71-2.48-4.63-2.4-5.79.71l-1.21-.81h-.46a4.86,4.86,0,0,0-1.7.12l-3.05.52a2.68,2.68,0,0,1-.8,0c-.22-.06-.71-.25-.84-.19s-.08.12-.3.05-.43,0-.67-.12a2.85,2.85,0,0,0-.51-.2,20.7,20.7,0,0,0-2.07-.32c-1.2-.12-2.42-.07-4.1-.1-1.07-7.79-.62-16.16,4-23.9,1.6-2.68,1.17-7.18-.82-8.78-1.84-1.48-5.51-1.15-7.87,1.26a17.07,17.07,0,0,0-3.76,5.85c-2.65,7.14-7.58,11.26-14.89,13.34-2.61.73-5.23,3.1-6.83,5.41a133.21,133.21,0,0,0-10.42,17.36c-5.09,10.54-16.26,11.93-23.47,2.59-3.72-4.85-4.29-11.48,1.22-16.43,5.15-4.63,9.6-10.08,14-15.48A15.89,15.89,0,0,0,71.07,143c-.37-9.11,4.07-15.17,12.23-19.13,4-1.92,7.49-4.86,11-7.59a7.86,7.86,0,0,0,2.37-3.85,3.86,3.86,0,0,0-.65-3.33,3.76,3.76,0,0,0-3.3-.19c-6.13,2.75-12.46,2.84-19,1.92,1.7-3.29.15-9.57-2.91-10.8,2.2-1,4.3-2.07,2.45-4.85-.06-.1.58-.63.86-1,1.22-1.46,2-2.92-.67-4.51,9-.64,17.08.39,24.35,5.1,4.34,2.81,7.91,2.45,12.07-.75C125.05,82.48,142,78.19,160.8,81.47a23.08,23.08,0,0,1,3.72,1.3c10.12,2.94,17.93,9,24.23,17.38a18.31,18.31,0,0,0,6.13,5.24c3.6,1.82,5.92.79,8.15-2.59,5.15-7.78,13.61-13.26,23.86-15.45-.33,1.35-1.23,2.93-.8,4s2.19,1.5,3.49,2.28c-.72,3.71.86,4.66,4.42,4-.68,1.2-1.84,2.37-1.9,3.6,0,1,.56,2.16,4.05,2.6a18.7,18.7,0,0,0-4.27,5.6c1.75.38,2.71.25,5,.64C228.42,112.71,219.89,116.89,211.18,115.94Z"/></svg>