<svg id="Layer_1" data-name="Layer 1" xmlns="http://www.w3.org/2000/svg" viewBox="0 0 277.49 259.49"><defs><style>.cls-1{fill:red;}</style></defs><title>logo-all</title><path class="cls-1" d="M162.34,209.78h50.88L161,75.59s-6.41-13.54-19.55-12.49-6.94,0-6.94,0-13.62,1.21-18.93,16.15-51,130.53-51,130.53L117,210.89l-4-1.11v-3.85l-3.54-2.85V194l6.16-1.19s-3.15-5.19-2.62-6.11a105.62,105.62,0,0,1,7.19-11.29c4.63-6.44,5.48-15.1,5.48-19.84s-6.38,2.35-5.48-6,4.17-2.74,4.17-2.74-9.53-10.55-4.17-21.72,17-12.42,23.1-10.72,14.81,6.33,14.47,19-7.41,13.44-7.41,13.44,3.94-.76,3.2,2.74-2.91,1.51-3.2,4.36.12,2.12,0,5.94,1.94,10.71,4.17,15.59,4.33,8.75,4.33,8.75l2.19,4.57-3.28,4.08,7,1.19v10.77l-4.91,1.16-2.05,1.88Z"/></svg>