<svg id="Layer_1" data-name="Layer 1" xmlns="http://www.w3.org/2000/svg" viewBox="0 0 277.49 259.49"><defs><style>.cls-1{fill:#ed2024;}</style></defs><title>logo-all</title><path class="cls-1" d="M49.32,91.09s.17.06.22.06A71.64,71.64,0,0,1,65.65,94a97,97,0,0,1,14.49,5.48,80.84,80.84,0,0,1,14.77,8.9,70.82,70.82,0,0,1,8,6.94,40.28,40.28,0,0,1,9.34,14,17.39,17.39,0,0,1,1.07,8.11,20.87,20.87,0,0,1-.79,4.08,23.36,23.36,0,0,1-3.19,6.1,24,24,0,0,1-10.18,7.95,45,45,0,0,1-11,3.19,51.34,51.34,0,0,1-6.43.56,48.57,48.57,0,0,1-12.31-1.29c-.45-.11-.84-.17-1.29-.28h-.22v.67a5.55,5.55,0,0,1-.39,2.13,2.1,2.1,0,0,1-1.29,1.28,5.24,5.24,0,0,1-3,.17,3.49,3.49,0,0,1-2.41-2,8.85,8.85,0,0,1-.62-2.63c-.11-.73-.22-1.51-.27-2.29a.9.9,0,0,0-.62-.84c-1.34-.62-2.63-1.29-3.92-2a49.81,49.81,0,0,1-11.58-8.84,17.64,17.64,0,0,1-3.08-4.14,6.22,6.22,0,0,1-.78-2.4,5.2,5.2,0,0,1,1.29-3.92,10.35,10.35,0,0,1,2.57-2.13,25,25,0,0,1,5.2-2.46,63.38,63.38,0,0,1,7-2.12c1.12-.23,2.29-.4,3.41-.62.62-.11.67-.11.67-.79,0-.44.06-.89.06-1.28a30.88,30.88,0,0,1,.33-5.09c.17-1.63.4-3.19.62-4.81.17-.9.39-1.74.61-2.63a2.72,2.72,0,0,1,.23-.62,1,1,0,0,1,1.3-.67.9.9,0,0,1,.32.17A4.37,4.37,0,0,1,65,111.34a11.29,11.29,0,0,1,1.29,2.91,27,27,0,0,1,1,6c0,1.34.11,2.74.17,4.08a.8.8,0,0,0,0,.34H69a45,45,0,0,1,8.28.44A57,57,0,0,1,85.29,127a14.92,14.92,0,0,1,5.54,3,7.69,7.69,0,0,1,2.57,4.25,4.59,4.59,0,0,1-.22,2.74,6.8,6.8,0,0,1-4.81,4.31,6.15,6.15,0,0,1-2.86-.11,12,12,0,0,1-1.4-.45.73.73,0,0,1-.5-.61.67.67,0,0,1,.45-.67l1.45-.79A4.44,4.44,0,0,0,87,137.41a1.2,1.2,0,0,0,0-1.68l-.2-.17a4.46,4.46,0,0,0-1.23-.67,42.64,42.64,0,0,0-5.88-1.62c-2.4-.5-4.86-.9-7.32-1.18-1.52-.17-3-.17-4.48-.28a.67.67,0,0,0-.28.06c.17,6.54.28,13.09.45,19.64l.84.16a51.6,51.6,0,0,0,12.47.73,43.07,43.07,0,0,0,8.45-1.23,28.22,28.22,0,0,0,9.07-4,13.91,13.91,0,0,0,5.2-16.78,33.26,33.26,0,0,0-5.43-9.18,50.42,50.42,0,0,0-9.79-8.89,82.11,82.11,0,0,0-20.7-10.58A91.27,91.27,0,0,0,55,98.13,78.62,78.62,0,0,0,47,97.07,65.56,65.56,0,0,0,39,96.9a35.69,35.69,0,0,0-6.44.73c-.56.11-1.12.28-1.68.45a3.55,3.55,0,0,0-.84.39,1.07,1.07,0,0,0,.84.33,17.27,17.27,0,0,0,1.74.23,1.9,1.9,0,0,1,1.28.61,1,1,0,0,1,.26,1.33,1,1,0,0,1-.65.41,4.32,4.32,0,0,1-1.18.22,9.85,9.85,0,0,1-3.58-.33,6.36,6.36,0,0,1-.84-.28,1.73,1.73,0,0,1-1-2.13,7.74,7.74,0,0,1,3.8-5.15,15.11,15.11,0,0,1,3.86-1.34,60.72,60.72,0,0,1,9.58-1.45l.27,0A35.3,35.3,0,0,0,49.32,91.09Zm10.57,58.35c-.06-2.91-.11-5.7-.11-8.56s0-5.65,0-8.55c-.89,0-1.67.16-2.51.22a61.45,61.45,0,0,0-8.45,1.23,27.77,27.77,0,0,0-4.65,1.34,6.82,6.82,0,0,0-1.73,1,1.28,1.28,0,0,0-.34,1.23,2.67,2.67,0,0,0,.68,1.23,25.9,25.9,0,0,0,3.86,3.69,51.4,51.4,0,0,0,8.56,5.32C56.76,148.27,58.27,148.83,59.89,149.44Z"/><path class="cls-1" d="M214.08,182.79l-.83-.5a7.44,7.44,0,0,1-2.24-1.74,5.91,5.91,0,0,1-1.23-2.8,15.12,15.12,0,0,1-.06-4.25,68.91,68.91,0,0,1,4.59-18.91c.28-.67.5-1.34.78-2a1.17,1.17,0,0,0,0-.9,15.64,15.64,0,0,1-1.34-7.33,22.26,22.26,0,0,1,1.79-7,37.65,37.65,0,0,1,5.32-8.73c.67-.84,1.45-1.68,2.18-2.46a4.83,4.83,0,0,1,1-.79.92.92,0,0,1,1.28.18.87.87,0,0,1,.17.38,3,3,0,0,1,0,1.4,11.82,11.82,0,0,1-1.62,4.25l-2,3.53a24,24,0,0,0-2.85,6.65,8.7,8.7,0,0,0-.39,3.36,4.1,4.1,0,0,0,.11.61c.17-.22.28-.39.39-.55,1.74-2.35,3.47-4.7,5.26-7,1-1.21,2-2.36,3.14-3.47s2.4-2.46,3.69-3.63a13.42,13.42,0,0,1,3.52-2.41,5.3,5.3,0,0,1,2.24-.56,4.4,4.4,0,0,1,3.08,1.57,9.26,9.26,0,0,1,2.23,4.42c.17.67.23,1.4.34,2.07a.85.85,0,0,0,.11.34v3.13l-.17,1.18a17.4,17.4,0,0,1-3.58,8.28,21.58,21.58,0,0,1-7.33,6,17.34,17.34,0,0,1-9.45,2.24,2.8,2.8,0,0,1-.28.06c-.34,1.06-.67,2.07-1,3.07A143,143,0,0,0,217.33,175c-.45,2.18-1,4.36-1.4,6.6a1.18,1.18,0,0,1-.61.9c-.06,0-.11.11-.11.16A2.55,2.55,0,0,1,214.08,182.79Zm11.81-33.29c0,.05.06.11.06.17h.44a9.92,9.92,0,0,0,3.75-.9,14.06,14.06,0,0,0,5.66-4,11.66,11.66,0,0,0,2.74-7.77,4,4,0,0,0-.56-2.24.73.73,0,0,0-.92-.44.77.77,0,0,0-.31.22c-.34.28-.62.56-.9.84a43.08,43.08,0,0,0-4.81,6c-1.46,2.13-2.8,4.31-4.2,6.49-.28.5-.62,1.06-1,1.62Z"/><path class="cls-1" d="M145.83,124.88a32.33,32.33,0,0,1,8.84,1c.84.28,1.67.62,2.51,1a2.53,2.53,0,0,1,.51.28.94.94,0,0,1,.44,1.07,3.09,3.09,0,0,1-.95,1.79,3.58,3.58,0,0,1-1.9,1c-1.06.16-2.18.33-3.3.44-2.12.12-4.25.23-6.38.28-2.35.12-4.75.23-7.1.51a23.92,23.92,0,0,0-4.36.89,4,4,0,0,0-.84.39c-.34.23-.34.56,0,.73a2.89,2.89,0,0,0,.9.34c1.34.22,2.63.39,4,.56,2,.22,4,.45,6.05.72,1.62.23,3.24.4,4.86.73a21.06,21.06,0,0,1,3.14.84,7,7,0,0,1,4.47,4.48,9.78,9.78,0,0,1,.17,6.43,8.81,8.81,0,0,1-3.92,4.87,14.3,14.3,0,0,1-5.09,2,20,20,0,0,1-12.47-1.51,14.72,14.72,0,0,1-5.1-3.69,5.51,5.51,0,0,1-1.34-2.63,4.42,4.42,0,0,1,1.57-4.48,7.44,7.44,0,0,1,3.36-1.57,15.92,15.92,0,0,1,5.15-.28,31.82,31.82,0,0,1,6,1.12c1.12.34,2.18.84,3.3,1.29l.34.16a1,1,0,0,1,.38,1.3,1.77,1.77,0,0,1-.16.22,3.9,3.9,0,0,1-1.06.83,10.08,10.08,0,0,1-3.58,1.07,7,7,0,0,1-3.86-.51c-1-.39-1.91-.83-2.91-1.17a19,19,0,0,0-2.58-.73,3.54,3.54,0,0,0-2,.17,2,2,0,0,0-1.23,1.12,1.31,1.31,0,0,0,.17,1.28,2.53,2.53,0,0,0,1.28.9,10.23,10.23,0,0,0,3.92.89,31.55,31.55,0,0,0,8.22-.78,17.75,17.75,0,0,0,5.88-2.52,8.52,8.52,0,0,0,.95-1,1.32,1.32,0,0,0,.11-1.29,1.17,1.17,0,0,0-.17-.28,6.83,6.83,0,0,0-2.4-1.51,24.22,24.22,0,0,0-4.37-1.06c-2.74-.45-5.48-.62-8.22-.9a46.84,46.84,0,0,1-5.66-.61,8.77,8.77,0,0,1-1.57-.45,3.52,3.52,0,0,1-2.35-3.46,7.22,7.22,0,0,1,2.63-5.71,15.19,15.19,0,0,1,4.93-2.69,29.2,29.2,0,0,1,6.54-1.39C143.31,125.05,145,125,145.83,124.88Z"/><path class="cls-1" d="M194.28,131.15c-.56-.17-1.18-.28-1.74-.5a13.29,13.29,0,0,1-1.84-.73,3.12,3.12,0,0,1-1.68-2.07,1,1,0,0,1,.5-1.29,3.78,3.78,0,0,1,1.34-.44,85.57,85.57,0,0,1,9.41-1.46c2.07-.22,4.19-.39,6.26-.56a6.16,6.16,0,0,1,5.49,2.24,8.45,8.45,0,0,1,1.28,1.9c.73,1.34.34,2.18-1.12,2.69a14,14,0,0,1-3.41.61,78.45,78.45,0,0,1-8.11.23h-.73c-.39,1.34-.78,2.63-1.23,4h1.62c1.57,0,3.08,0,4.64,0a12.18,12.18,0,0,1,1.35,0,2.09,2.09,0,0,1,2.18,2v0a8.34,8.34,0,0,1,0,1.73,1.38,1.38,0,0,1-1.34,1.4,12.78,12.78,0,0,1-1.51.11c-2.52.06-5,.12-7.56.23a2.27,2.27,0,0,0-1.23.22c-.28.22-.33.67-.5,1.06-.45,1.4-.9,2.74-1.34,4.14a.68.68,0,0,0-.06.34,5.23,5.23,0,0,0,1.85-.06c3-.5,6-1,9-1.45,1.51-.22,1.95-.11,2.9,1.34a4,4,0,0,1,.62,2,2.2,2.2,0,0,1-.39,1.29,8.45,8.45,0,0,1-1.07,1,28.39,28.39,0,0,1-8.16,4.31,12.22,12.22,0,0,1-4.7.84,6.8,6.8,0,0,1-5.1-2.29,8.05,8.05,0,0,1-1.79-3.92,10.4,10.4,0,0,1,.79-5.82c.28-.67.56-1.34.89-2.07a2.13,2.13,0,0,0,.12-1c-.17-.73-.28-1.46-.4-2.19a3,3,0,0,1-.05-.67,1.61,1.61,0,0,1,.84-1.51,2.66,2.66,0,0,1,1.28-.39,1.26,1.26,0,0,0,1.07-.73c.11-.28.22-.5.33-.78.4-1.12.84-2.24,1.24-3.36A1.31,1.31,0,0,0,194.28,131.15Z"/><path class="cls-1" d="M166.75,137a6.1,6.1,0,0,0-.17.95c-.11,2.13-.22,4.31-.33,6.43-.12,2.35-.17,4.65-.34,7a8.19,8.19,0,0,1-.56,2.63,2,2,0,0,1-1.9,1.45,3.37,3.37,0,0,1-2.13-.84,4.36,4.36,0,0,1-1.06-1.73,12.87,12.87,0,0,1-.67-3.25,37.45,37.45,0,0,1,.28-7.1,63.68,63.68,0,0,1,2.18-10.13,32.73,32.73,0,0,1,1.23-3.3A4.52,4.52,0,0,1,164,128a1.71,1.71,0,0,1,2.3-.51,4.47,4.47,0,0,1,1.62,1.4c.73,1,1.45,2,2.13,3,2.57,3.87,5.09,7.73,7.66,11.59a8.25,8.25,0,0,0,.62.84.5.5,0,0,0,.61.16c0-.16.06-.33.06-.5a46,46,0,0,0-1.46-10.69c-.72-2.85-1.51-5.65-2.24-8.5-.22-.9-.33-1.79-.5-2.74a1.27,1.27,0,0,1,.06-.67,1.07,1.07,0,0,1,1.22-.92l.12,0a3,3,0,0,1,1.34.67,15.11,15.11,0,0,1,2.41,2.58A28.1,28.1,0,0,1,184.6,134a30.59,30.59,0,0,1,1,7.44,20.79,20.79,0,0,1-.9,6.65,9.65,9.65,0,0,1-2.07,3.59,5.18,5.18,0,0,1-4,1.73,2.57,2.57,0,0,1-1.84-.73,20.2,20.2,0,0,1-1.52-1.68,54.11,54.11,0,0,1-4.47-7.27c-1.12-2.07-2.18-4.14-3.3-6.21A.89.89,0,0,0,166.75,137Z"/><path class="cls-1" d="M117.12,119.35c-.22.39-.39.78-.61,1.11a7.17,7.17,0,0,1-.62.9,1.36,1.36,0,0,1-1.9.22l-.17-.16a4.4,4.4,0,0,1-1.39-3.08v-.5a3.17,3.17,0,0,0-.79-2.41A7,7,0,0,1,110.3,112a7.66,7.66,0,0,1,.72-4.59,14.13,14.13,0,0,1,3-4.2,21.37,21.37,0,0,1,9.56-5.48,13.1,13.1,0,0,1,5.32-.39,7.2,7.2,0,0,1,4.75,2.57,1.31,1.31,0,0,0,.73.39,6.37,6.37,0,0,1,4.2,2.58,5.51,5.51,0,0,1,.84,4.64,10,10,0,0,1-2.52,4.64,28.77,28.77,0,0,1-7.44,5.77,20,20,0,0,1-7.11,2.23,12.19,12.19,0,0,1-3.19-.22A5.44,5.44,0,0,1,117.12,119.35Zm2.8-4.82a5.19,5.19,0,0,0,.79.12,19.35,19.35,0,0,0,5.09-.34,17.08,17.08,0,0,0,7.61-3.75,7.38,7.38,0,0,0,1.9-2.4,3.11,3.11,0,0,0,.22-2.24,2.65,2.65,0,0,0-3.08-1.74,10.61,10.61,0,0,0-3.8,1.63,33.45,33.45,0,0,0-8.45,8.33C120,114.25,120,114.37,119.92,114.53Zm-5.14-2.29a35.23,35.23,0,0,1,7.77-8.61,5.92,5.92,0,0,0-2.46.5,13.52,13.52,0,0,0-3.81,2.63,7.54,7.54,0,0,0-1.79,2.57,2.88,2.88,0,0,0,.29,2.91Z"/><path class="cls-1" d="M124.62,144.18c.06,2.35.17,4,.17,5.6,0,1-.06,2-.11,3a2.06,2.06,0,0,1-.11.61,2.29,2.29,0,0,1-1.91,1.8,5.72,5.72,0,0,1-2.4-.12,2.94,2.94,0,0,1-2.18-2,8.69,8.69,0,0,1-.45-2c-.11-1.62-.28-3.29-.28-4.92-.06-2.35,0-4.7.06-7a57.79,57.79,0,0,1,1.17-10.74,13.51,13.51,0,0,1,.67-2.07c.51-1.12,1.12-1.29,2.24-.67a3.17,3.17,0,0,1,1.34,1.57,11.59,11.59,0,0,1,.73,2.85c.4,2.8.67,5.62.79,8.45C124.45,140.66,124.57,142.79,124.62,144.18Z"/></svg>