<svg id="Layer_1" data-name="Layer 1" xmlns="http://www.w3.org/2000/svg" viewBox="0 0 277.49 259.49"><defs><style>.cls-1{fill:#ed2024;}</style></defs><title>logo-all</title><path class="cls-1" d="M165.51,165.15c-1.12,1.21-2.07,2.33-3.19,3.37a33.81,33.81,0,0,1-18,9.14,34.29,34.29,0,0,1-8.88.34,23.14,23.14,0,0,1-13-5.17c-.9-.79-1.76-1.63-2.58-2.5-.52.52-1.12,1-1.64,1.55A26.21,26.21,0,0,1,108,177a36.64,36.64,0,0,1-11.47,1.12c-6-.43-11.3-2.33-15.61-6.81h0c-1.38.95-2.67,2.07-4.05,2.93a25.71,25.71,0,0,1-9.66,3.28,34.65,34.65,0,0,1-8.45.35,18.49,18.49,0,0,1-12.41-5.26A15.33,15.33,0,0,1,42.22,164a29.84,29.84,0,0,1,.26-9.66A123,123,0,0,1,50.41,129a184.35,184.35,0,0,1,9.91-20.87A28.46,28.46,0,0,1,65.58,101a18.42,18.42,0,0,1,10.09-4.82,23.22,23.22,0,0,1,8.79.34,9.87,9.87,0,0,1,6.82,5,11.45,11.45,0,0,1,1,4.82v1l.35-.35A23.65,23.65,0,0,1,108,96.7a51.46,51.46,0,0,1,9.66-1.12,36.19,36.19,0,0,1,6.9.25,18.82,18.82,0,0,1,9.83,4.06c1,.86,1.81,1.81,2.75,2.76a34.2,34.2,0,0,1,3.45-2.33,30.87,30.87,0,0,1,11.21-4.14,41.61,41.61,0,0,1,10.86-.43,27.53,27.53,0,0,1,11.64,3.19,17.22,17.22,0,0,1,7.07,7c.09.09.09.18.18.35h0c.95-1,1.89-1.82,2.84-2.76A28.11,28.11,0,0,1,197.5,96.7a37.44,37.44,0,0,1,10.34-.87,25.63,25.63,0,0,1,12.51,3.54,18.34,18.34,0,0,1,8.27,11.9,32.65,32.65,0,0,1,.69,10.43,88.88,88.88,0,0,1-5.08,21.64,99.84,99.84,0,0,1-7.16,16.39,41.07,41.07,0,0,1-8,10.43,28.89,28.89,0,0,1-14.48,7.24,35.76,35.76,0,0,1-9.06.61,23.68,23.68,0,0,1-13.88-4.75,17.57,17.57,0,0,1-5.6-7.58A2.9,2.9,0,0,1,165.51,165.15Zm-13.53-20v.26a16.16,16.16,0,0,1-4.23,7.93,7.38,7.38,0,0,1-4.65,2.42c-2.85.26-4.66-.86-4.57-3.79a19.21,19.21,0,0,1,.69-5,131.49,131.49,0,0,1,8.19-22.68,21.93,21.93,0,0,1,3.53-5.77,6.94,6.94,0,0,1,6.73-2.42,1.71,1.71,0,0,1,1.6,1.82,1.26,1.26,0,0,1-.05.33,6.21,6.21,0,0,1-.26,1.21c-.17.61-.43,1.21-.61,1.9-.77,2.93.44,4.91,3.28,5.69a10.5,10.5,0,0,0,4.92.25,10.09,10.09,0,0,0,7.84-5.34,16.45,16.45,0,0,0,2-8.8,9.5,9.5,0,0,0-4.82-8.19,15.65,15.65,0,0,0-5.44-2.07,35.31,35.31,0,0,0-12.76-.34,24.61,24.61,0,0,0-12.24,5.35,29.87,29.87,0,0,0-7.41,9,99.37,99.37,0,0,0-11.82,32.5,25.29,25.29,0,0,0,0,10.18,14.14,14.14,0,0,0,4.23,7.84,16.31,16.31,0,0,0,9.91,4.14,26.78,26.78,0,0,0,21.47-7.24,35.86,35.86,0,0,0,9.84-15.95,30.39,30.39,0,0,0,1.72-10.35,7.21,7.21,0,0,0-5.86-7.07,20.81,20.81,0,0,0-8,0,10.17,10.17,0,0,0-5.08,2.07,11.57,11.57,0,0,0-3.54,6.21,4.21,4.21,0,0,0,2.63,5.34l.31.09C150.32,144.82,151.15,145,152,145.15Zm71-27.5c-.09-.69-.17-2.16-.35-3.62-.86-5.35-3.79-9.14-9-10.78a28.12,28.12,0,0,0-15.09-.26A22.27,22.27,0,0,0,185,112.73a59.33,59.33,0,0,0-5.86,11.64,123.58,123.58,0,0,0-7.33,23.45,39.74,39.74,0,0,0-.77,11,12.69,12.69,0,0,0,9.57,11.73,27.52,27.52,0,0,0,10.26.86,22.12,22.12,0,0,0,11.72-4.31,29.19,29.19,0,0,0,8.37-10,101.1,101.1,0,0,0,10.77-28.8,54.15,54.15,0,0,0,1.3-10.69ZM107.23,127.82a52,52,0,0,1,3.88-8c.08-.17.43-.26.6-.26,2.76-.08,5.52-.08,8.28-.17a19,19,0,0,0,5.43-1,9.12,9.12,0,0,0,6.47-7.51A6,6,0,0,0,129,104.2a14.08,14.08,0,0,0-3.7-1.64,23,23,0,0,0-6.9-.69,49,49,0,0,0-7.93.77A19.15,19.15,0,0,0,100,108.51a35.77,35.77,0,0,0-5.35,7.67,131.08,131.08,0,0,0-10.26,26.21,55.68,55.68,0,0,0-2.33,15,13.24,13.24,0,0,0,8,12.5,20.14,20.14,0,0,0,9.83,1.73,26.94,26.94,0,0,0,11.21-2.76c4-2.07,6.47-5.17,6.81-9.74a6.06,6.06,0,0,0-2-5.52,8.56,8.56,0,0,0-4.23-1.82,29.23,29.23,0,0,0-10.86.69c-.69.18-1.38.35-2.24.52,1.12-3.53,2.15-7,3.19-10.34a36.15,36.15,0,0,0,9.57.6,11,11,0,0,0,5.77-2.15,11.65,11.65,0,0,0,4.23-7.42,4.62,4.62,0,0,0-3.1-5.52,15.19,15.19,0,0,0-5.87-.77c-1.72.09-3.45.26-5.17.43ZM66.79,152.65l.26-.52c2.5-5.17,5-10.43,7.5-15.6,3-6.3,6-12.59,8.37-19.23a34.24,34.24,0,0,0,2.33-8.8c.25-3-1-5.17-3.8-5.77a12.52,12.52,0,0,0-9.91,1.72A15.72,15.72,0,0,0,67,109.71c-2.59,4.4-4.83,9-7,13.62a180.56,180.56,0,0,0-9.48,25.35,44.32,44.32,0,0,0-2,11.12,11.18,11.18,0,0,0,1.21,6A9.88,9.88,0,0,0,57,170.76a27,27,0,0,0,13.1-.69c5.69-1.73,9.14-5.35,10-11.39a5.12,5.12,0,0,0-3.37-5.86,11.62,11.62,0,0,0-4.48-.77C70.24,152.31,68.52,152.48,66.79,152.65Z"/><path class="cls-1" d="M207,119.55a23.26,23.26,0,0,1-1.12,6,168.47,168.47,0,0,1-9.14,24.91,13.62,13.62,0,0,1-2.76,4.23,4.41,4.41,0,0,1-3.79,1.29,3.06,3.06,0,0,1-2.79-3.3l0-.23a24,24,0,0,1,.69-4.14,155,155,0,0,1,10-27.33,23.31,23.31,0,0,1,2-3.19,4.81,4.81,0,0,1,5.26-1.38,2.33,2.33,0,0,1,1.55,2.15A4,4,0,0,1,207,119.55Z"/></svg>