<svg id="Layer_1" data-name="Layer 1" xmlns="http://www.w3.org/2000/svg" viewBox="0 0 277.49 259.49"><defs><style>.cls-1{fill:#ed2024;}</style></defs><title>logo-all</title><path class="cls-1" d="M61.71,125.23h13.6c.56,0,.72.17.78.67a34.46,34.46,0,0,1,0,8.67,26.49,26.49,0,0,1-21.59,23.61,31,31,0,0,1-17.62-1.12c-11.19-4.25-18.3-12.2-20.54-24a28.86,28.86,0,0,1,5.21-22.88,30.75,30.75,0,0,1,21.09-13,29.83,29.83,0,0,1,20,3.63,31.32,31.32,0,0,1,5.59,4.2c.28.28.28.45,0,.73-1.73,1.73-3.52,3.46-5.26,5.26-.34.33-.5.28-.78,0a20.68,20.68,0,0,0-9-4.93c-8.06-1.9-15.28-.28-21.32,5.43a21.57,21.57,0,0,0-6.6,13.15,22.42,22.42,0,0,0,4.87,17.68,21.37,21.37,0,0,0,14.6,7.94,22.26,22.26,0,0,0,13.54-2.46,17.09,17.09,0,0,0,9.12-12.64c.06-.45.34-1.06.11-1.34s-.89-.12-1.34-.12H48.11c-.56,0-.72-.11-.72-.72q.07-3.52,0-7c0-.56.11-.73.72-.73Z"/><path class="cls-1" d="M204.71,139.55c0,5.87.06,11.75,0,17.68a22.72,22.72,0,0,1-2.63,10.8,16.19,16.19,0,0,1-10.35,8.05,21.56,21.56,0,0,1-10.85.23c-5.93-1.51-10.07-5.26-12.7-10.75-.17-.33-.17-.5.22-.67,2.24-.89,4.48-1.84,6.72-2.79.44-.17.56-.06.72.33,1.51,3.08,3.75,5.37,7.11,6.21,4,1,7.77.39,10.74-2.85a10.86,10.86,0,0,0,2.52-6,47.57,47.57,0,0,0,.16-4.92c0-.11.06-.28-.11-.39s-.28,0-.39.16A13.37,13.37,0,0,1,185.63,159a17.9,17.9,0,0,1-11.47-4,19.59,19.59,0,0,1-7.55-12.86,20.13,20.13,0,0,1,12.7-21.88,16.1,16.1,0,0,1,12.36.11,12,12,0,0,1,4.15,2.91c.11.11.22.34.44.28s.11-.33.11-.45v-2.29c0-.34.12-.45.45-.45h7.5c.45,0,.45.23.45.56V127c-.06,4.08-.06,8.34-.06,12.59Zm-7.72-.5a14.71,14.71,0,0,0-1-5.37,10.38,10.38,0,0,0-17.51-3.36,12.11,12.11,0,0,0-3.24,9.68,11.86,11.86,0,0,0,4.31,8.67,10.37,10.37,0,0,0,14.1-.79A12.27,12.27,0,0,0,197,139Z"/><path class="cls-1" d="M143.17,158.91A20,20,0,1,1,163.25,139a19.74,19.74,0,0,1-19.56,19.92Zm-11.3-20a13.1,13.1,0,0,0,.22,2.58,11.87,11.87,0,0,0,.73,2.4,11,11,0,0,0,18.57,3.42c3.3-3.69,3.86-8.12,2.35-12.7a11,11,0,0,0-16.84-5.82C133.44,131.21,132,134.74,131.87,138.93Z"/><path class="cls-1" d="M99.92,158.91a19.77,19.77,0,0,1-20.08-19.44v-.54a19.7,19.7,0,0,1,20-20,20,20,0,0,1,.3,40ZM111.17,139a13.32,13.32,0,0,0-.56-3.92c-1.35-4.14-4-6.94-8.23-7.89a10.51,10.51,0,0,0-10.74,3.47c-3.8,4.2-4,11.25-.62,15.89a10.92,10.92,0,0,0,14.44,3C109.38,147.1,111.06,143.47,111.17,139Z"/><path class="cls-1" d="M242,158.91c-8.9,0-16.39-5.26-18.86-13.65-2.35-7.95-.95-15.28,5.1-21.26a17.64,17.64,0,0,1,14.88-4.93c5.93.67,10.07,4,13.15,8.9a34.48,34.48,0,0,1,2.57,5.59c.17.39-.06.45-.34.56-3.69,1.51-7.44,3.08-11.13,4.59-4.87,2-9.68,4-14.55,6-.56.22-.56.44-.28.89,3.75,7,13.1,6.83,17.51,2a20.36,20.36,0,0,0,1.46-1.74c.17-.27.33-.27.61-.11l6.16,4.14c.28.23.22.34.05.56a19.51,19.51,0,0,1-15.05,8.45c-.22,0-.44.06-.67.06ZM231,137.14v.28c0,.9,0,.9.73.56,5.31-2.18,10.57-4.36,15.89-6.6,1.45-.62,1.45-.67.44-1.9a8,8,0,0,0-7.88-2.75A11,11,0,0,0,231,137.14Z"/><path class="cls-1" d="M218.47,128.42v28.47c0,1,.12.84-.83.84H210.7c-.56,0-.78-.11-.78-.73.05-2.74,0-5.48,0-8.22V99.89c0-.9-.12-.79.78-.79h7.05c.62,0,.73.17.73.73Z"/></svg>