<svg id="Layer_1" data-name="Layer 1" xmlns="http://www.w3.org/2000/svg" viewBox="0 0 277.49 259.49"><defs><style>.cls-1{fill:#ed2024;}</style></defs><title>logo-all</title><path class="cls-1" d="M45.09,169.56V104.1H227.64v65.46Zm92.37-2.68c2.74-.06,6.48-.17,10.29-.28,2.29-.06,4.59-.17,6.94-.34,3-.22,5.93-.5,8.89-.78,2.58-.28,5.15-.56,7.67-.95,3.8-.62,7.55-1.24,11.35-2a128.71,128.71,0,0,0,20.76-5.82,60.38,60.38,0,0,0,14.1-7.27,23.37,23.37,0,0,0,6.15-6.27,11.6,11.6,0,0,0,1.91-5.82,10.57,10.57,0,0,0-1.29-5.31,19.64,19.64,0,0,0-5.09-6.05,48.92,48.92,0,0,0-11-6.6,109.63,109.63,0,0,0-19.08-6.38c-4.64-1.18-9.4-2.13-14.1-2.85-3.29-.51-6.65-1-10-1.4-2.4-.28-4.81-.5-7.21-.67-2.69-.23-5.37-.39-8-.56-2.13-.11-4.25-.23-6.33-.23-3.63,0-7.32-.11-11,0-4.37.12-8.73.28-13.15.51-2.29.11-4.59.28-6.88.5s-4.81.5-7.22.79c-3.13.39-6.26.84-9.34,1.34-3.3.56-6.55,1.23-9.85,2a118.51,118.51,0,0,0-19,5.88,53.63,53.63,0,0,0-12.53,6.93,20.59,20.59,0,0,0-5.71,6.33,10.65,10.65,0,0,0-1.06,8.33,14.54,14.54,0,0,0,3.75,6.1,31.44,31.44,0,0,0,6.66,5.2A72.81,72.81,0,0,0,72,157.53a145.83,145.83,0,0,0,23.83,6c5,.84,10,1.57,15.11,2,2.85.28,5.7.5,8.55.73s5.82.33,8.68.39c2.68.17,5.43.17,9.29.23Z"/><path class="cls-1" d="M116.14,123.57h15.5a3.78,3.78,0,0,1-.4.56c-2,2.86-4,5.77-6,8.62a.68.68,0,0,0-.06.84c2.58,4.08,5.09,8.11,7.67,12.19A8.07,8.07,0,0,0,134,147H115.35a2.33,2.33,0,0,0,.23-.72,2,2,0,0,0-.28-.9c-1.46-2.35-3-4.7-4.42-7a.76.76,0,0,0-.23-.17v7.44a5.53,5.53,0,0,0,.23,1.34H95.55a5.44,5.44,0,0,0,.28-2.68V125.42a14.58,14.58,0,0,0-.17-1.62H111a3.71,3.71,0,0,0-.33,2.18v5.71a.64.64,0,0,0,.11.44c.11-.16.28-.28.39-.44l4.87-6.38A1.64,1.64,0,0,0,116.14,123.57Z"/><path class="cls-1" d="M177.35,123.46h21a2.26,2.26,0,0,0,.16,1.9c2.91,6.88,5.88,13.71,8.79,20.59a9.75,9.75,0,0,0,.67,1.12H191.5c.28-1.51-.67-2.74-1-4.08,0-.11-.22-.17-.33-.17h-6.72a.45.45,0,0,0-.33.22c-.39,1-.79,1.91-1.12,2.86-.11.28.06.67.06,1H168.9a31.14,31.14,0,0,0,2.35-5.81c2-5.37,4-10.75,6-16.12A1.25,1.25,0,0,0,177.35,123.46Zm7.77,14.1h3.58c-.62-1.34-1.18-2.63-1.79-4-.67,1.34-1.23,2.63-1.79,4Z"/><path class="cls-1" d="M164.81,139.85v6.77c0,.56,0,.56-.56.56H152.12c-4.65,0-9.35-.05-14-.05h-.56a5.81,5.81,0,0,0,.28-2.74V125.53a3.38,3.38,0,0,0-.34-2.07h19.3c2.47,0,4.93.06,7.45.06.39,0,.5.11.5.5v6.49c-1.18,0-2.29-.06-3.47-.06H152.9c-.45,0-.56.12-.5.56a3.48,3.48,0,0,1,0,.79c-.06.39.11.5.5.5h7.89a1.38,1.38,0,0,0,.45-.05c.28-.06.56-.17.89-.23v6.49a5.65,5.65,0,0,0-2.85-.33H153c-.4,0-.56.11-.51.5a3.89,3.89,0,0,1,0,1.18c0,.39.11.45.45.45h8c1,0,2,0,3-.06A3.91,3.91,0,0,1,164.81,139.85Z"/><path class="cls-1" d="M71.72,123.68H87.16a4.76,4.76,0,0,0-.34,2.63v18.35a5.48,5.48,0,0,0,.34,2.47H71.77c.17-3.75.06-7.5.06-11.25V124.69A3.44,3.44,0,0,0,71.72,123.68Z"/></svg>