<svg id="Layer_1" data-name="Layer 1" xmlns="http://www.w3.org/2000/svg" viewBox="0 0 277.49 259.49"><defs><style>.cls-1{fill:#ed2024;}</style></defs><title>logo-all</title><path class="cls-1" d="M37.94,153.37a6.33,6.33,0,0,1-.26,2c-.26.94-.57,2.39-1,4.37-.26,1.87-.67,2.85-1.24,2.85s-1.3,0-2-.05-1.66-.1-2.5-.1c-1.71,0-3.06,0-4.05-.05s-1.4-.06-1.25-.06c-.78,0-1.71.06-2.86.11a.94.94,0,0,1-.36-.11,40.15,40.15,0,0,0-4.78-.1H13.25a4.2,4.2,0,0,1-.41-.1,2.83,2.83,0,0,0-.58-.11c.06-.31.16-.67.26-1.19a14.18,14.18,0,0,0,1.46-.37,3,3,0,0,0,1.46-1.56,3.22,3.22,0,0,0,.63-.88,6.37,6.37,0,0,0-.16-1.15,6.14,6.14,0,0,1-.16-1.14c.16.05.58-.21,1.2-.73a5.86,5.86,0,0,1-.42-.78c0-.05-.15-.05-.41-.05-.31-.31-.26-.73.21-1.35a2.42,2.42,0,0,0,.41-1.41,5.91,5.91,0,0,0-.21-1.45,5.47,5.47,0,0,1-.2-1.2,1.06,1.06,0,0,1,.15-.42,1.46,1.46,0,0,0,.16-.36v-2.23q.06-.28.15-.57a2.58,2.58,0,0,0,.16-.73,7.55,7.55,0,0,0-.26-.93,4.24,4.24,0,0,0,0-.94,2.56,2.56,0,0,0,0-.62c-.05-.21-.05-.47-.1-.68a9.59,9.59,0,0,1,.15-1.3c.11-.73.16-1.14.21-1.35a10.53,10.53,0,0,0-.1-1.25c-.06-.57-.11-.88-.11-.88v-2.28c0-.11.05-.21.21-.37l-.21-2.55a7.91,7.91,0,0,1,.05-1.61,2.6,2.6,0,0,0,.11-.62,7.48,7.48,0,0,0-.26-1.56c-.16-.47-.31-1-.42-1.46v-1.29s0-1.72-.15-5.26a8,8,0,0,1-.21-1.19s.05-.31.1-.94a1.4,1.4,0,0,0-.1-.57c0-.15-.11-.36-.16-.52a6.67,6.67,0,0,0,.21-1.4,12,12,0,0,0-1.4-2,1.84,1.84,0,0,0-.89-.26c-.52,0-.83-.1-.93-.1a1.13,1.13,0,0,1,0-.63,1.33,1.33,0,0,1,.31-.57c.68-.05,1-.05.94-.05,1.35.11,3.37.21,6.08.31.67.06.93.06.83.06,2.54-.26,3.74-.37,3.64-.37h3.43a2.37,2.37,0,0,1-.26,1.2l-2.5.46a3,3,0,0,0-2.29,2.34c-.17.74-.31,1.49-.41,2.24a28.45,28.45,0,0,0-.31,3.32v23.76a2.24,2.24,0,0,0,.05.52,3.66,3.66,0,0,1,.05.57,22.55,22.55,0,0,1,0,2.6c-.05,1.1.05,1.66.37,1.77,0,0-.06.47-.11,1.51l-.1.1a33,33,0,0,1,.62,3.53,7.88,7.88,0,0,0-.73,1.62,11,11,0,0,0,.62,2c.94.05,1.88.11,2.81.21a2.94,2.94,0,0,1,1,.57c.1-.1.26-.31.52-.57a11.47,11.47,0,0,1,1.66.1c.78.06,1.36.11,1.72.11a.89.89,0,0,0,.41-.21,2.81,2.81,0,0,1,.52-.26l1.88-.47a3.58,3.58,0,0,0,.88-1l.88-1.3A4.85,4.85,0,0,0,36.59,153a8,8,0,0,1,1.36.37ZM17.36,125.83v-1.3c0-.47,0-1.15.05-2.13s.05-1.67.05-2.13a13.54,13.54,0,0,0-.73-4.89,1.93,1.93,0,0,0-.05,1l.16,1.09c0,2,.2,4.78.52,8.32Z"/><path class="cls-1" d="M55.14,135.44a15.34,15.34,0,0,1-.1,1.92,9.1,9.1,0,0,0-.47,1.62,8.49,8.49,0,0,1-.47,2.28c-.2.31-.57.78-1,1.46a9.69,9.69,0,0,1-1,1.92c-.42.42-1,1.1-1.92,2-.16,0-.37.15-.52.21a5.32,5.32,0,0,1-1,.78,17.81,17.81,0,0,1-6.76,2.23H39.08a1,1,0,0,0-.2-.15,8.43,8.43,0,0,1-3.54-.68c-.26,0-.52-.16-.78-.21a20,20,0,0,1-2.6-1.25,15.15,15.15,0,0,1-3.9-3.84,14.25,14.25,0,0,1-1.81-3.59,13.45,13.45,0,0,1-.84-3.43,23,23,0,0,1,.16-4.62c.1-.21.21-.47.36-.83s.26-1.1.47-1.93c.31-.52.73-1.3,1.25-2.28a1.15,1.15,0,0,0,.1-.58c.06,0,.21,0,.42.06a2.66,2.66,0,0,0,0-.89,6.71,6.71,0,0,0,.83-.36,3.26,3.26,0,0,1,.83-1.15c1.3-.72,2.6-1.4,4-2.07a10.75,10.75,0,0,1,1.72-.63,18.89,18.89,0,0,1,3.58-.62H40.8a13.26,13.26,0,0,1,3.38.41c.52.16,1.61.58,3.32,1.25l1.72,1.15a11.14,11.14,0,0,1,3.06,3.06,10,10,0,0,1,1.61,3.17,4.21,4.21,0,0,1,.42.78,13.87,13.87,0,0,1,.57,3.95A3.28,3.28,0,0,0,55,135a1.25,1.25,0,0,1,.15.46Zm-4.83.57a19.72,19.72,0,0,0-1.09-5.14,15,15,0,0,0-2.6-4.73A7.78,7.78,0,0,0,42,123.33a16.32,16.32,0,0,0-3.27-.31,11,11,0,0,0-3,.78c-.1,0-.73.41-2,1.19a1.78,1.78,0,0,1-.42.52c-.1.06-.26.11-.36.16-.31.37-.63.94-1.1,1.56a8,8,0,0,1-.31.78,12.69,12.69,0,0,0-.67,1.25c-.16.57-.37,1.35-.63,2.49,0,.42,0,1-.05,1.87a.81.81,0,0,1-.1.31c-.06.11-.06.21-.11.32l.89,4.05c0,.16-.06.26-.06.42a7.1,7.1,0,0,1,.42.88,2.31,2.31,0,0,0,.16.78c.62,1.25.93,1.87.93,1.92a9.12,9.12,0,0,0,1.82,2.19s.1.31.26.93l.73.11a9.08,9.08,0,0,0,1.61,1.35,7,7,0,0,0,2.86.62,18.91,18.91,0,0,0,3,0c.21-.05.52-.15.89-.26a17.71,17.71,0,0,0,2.08-.73c.2-.21.46-.41.83-.73a6.45,6.45,0,0,0,1.61-1.56,4.51,4.51,0,0,0,.93-1.87,3.66,3.66,0,0,0,.52-.78,6.46,6.46,0,0,1,.16-1,3.19,3.19,0,0,0,.26-.42c0-.31.1-1.09.21-2.24A7.26,7.26,0,0,0,50.3,136Z"/><path class="cls-1" d="M81.6,148.59V149a.36.36,0,0,1-.21.31,3.37,3.37,0,0,1-.78.15,6.13,6.13,0,0,0-.83.26,2.27,2.27,0,0,1-.88.21h-.21a1,1,0,0,1-.31-.21c-.16-.15-.26-.26-.21-.36a.88.88,0,0,0-.62,0c.2.16.46.31.78.52a2.4,2.4,0,0,1-1.56-.26,2.63,2.63,0,0,1,.1-.47l-.1-.05-1.3-.15-.11.1a2.71,2.71,0,0,1,.37.21,1.8,1.8,0,0,1-.89-.11c-.1-.15-.26-.36-.36-.52-.21-.31-.42-.41-.62-.36a14.55,14.55,0,0,0-1.67-1.92A6.4,6.4,0,0,1,71,145a1.3,1.3,0,0,1-.37-.37,6.41,6.41,0,0,1-.57-1,.49.49,0,0,0-.26-.21,2.77,2.77,0,0,0-.93-1.3.48.48,0,0,0,0-.37l-.78-1a1.93,1.93,0,0,1-.52-1.15v-.15c.05-.05.15-.05.31,0a.74.74,0,0,0,.2.16.92.92,0,0,0,.52-.26c.16.16.42.47.73.83a.28.28,0,0,0,.21-.31c0-.31-.15-.42-.41-.42l.05-.1,0-.11a.72.72,0,0,0,.31.21l.16-.1v-.52a1.18,1.18,0,0,0-.83-.31,3,3,0,0,0-.84.15,3.38,3.38,0,0,1-.78.16,1.09,1.09,0,0,1-.52-.16,1.59,1.59,0,0,1-.67-1.19l-.21-.21.05-.15a.66.66,0,0,0-.26-.47.64.64,0,0,0-.46-.21H60.5a.14.14,0,0,0-.16.12v0a3.32,3.32,0,0,0,0,1.09v2.13c0,1.25.11,2,.11,2.34,0,.1-.06.16-.06.26a.65.65,0,0,0,0,.31,2.46,2.46,0,0,1,.31.68,6.24,6.24,0,0,1,.11,1.56l-.68.52.05.15a20.76,20.76,0,0,1,2.71.37,1.9,1.9,0,0,0,.46.15,3.82,3.82,0,0,1,0,.68.63.63,0,0,1-.41.21,22.49,22.49,0,0,1-2.45-.32l-3.32-.05a5.83,5.83,0,0,1-1,.21c-.73.05-1.56.05-2.6.05v-.83a7.68,7.68,0,0,1,1.4-.47,2.09,2.09,0,0,0,1-.88,2.26,2.26,0,0,0,.58-1.2c.15-1.55.2-2.39.2-2.54V129.2a1.13,1.13,0,0,0-.05-.41c0-.16,0-.31,0-.47a7.25,7.25,0,0,1,0-1A10.37,10.37,0,0,0,56.7,126a5.11,5.11,0,0,0-.05-.78,5.8,5.8,0,0,1,0-.93,9.66,9.66,0,0,0-.16-1.41c-.1-.25-.2-.46-.31-.72s-.47-.68-1.19-.89c-.16,0-.31-.15-.47-.21a3.41,3.41,0,0,1-.78,0c-.26-.15-.26-.47-.1-.78.31-.05.72-.15,1.29-.26,1.67-.15,2.6-.21,2.86-.21h2.19s.31-.05.88-.1l.88-.1h1.2a1.83,1.83,0,0,1,.47,0,3.78,3.78,0,0,0,.67,0,8.28,8.28,0,0,1,.84-.16,30.28,30.28,0,0,1,3.53.73,11,11,0,0,1,3,2.13.4.4,0,0,1,0,.37,4.05,4.05,0,0,1-1,.73,4.11,4.11,0,0,0-1,.78c0,.15.16.21.37.26a1.84,1.84,0,0,0,.52,0,.36.36,0,0,1,.21-.21,6.17,6.17,0,0,1,.62-.11,1.22,1.22,0,0,0,.36.58.35.35,0,0,0,.26-.37.77.77,0,0,0-.2-.47.72.72,0,0,1,.46,0,2.29,2.29,0,0,0,.58.11l.31,1.71a10.37,10.37,0,0,1,.21,1.93,4.38,4.38,0,0,1-.16,1.19,20.57,20.57,0,0,1-.88,2.65,20,20,0,0,1-1.51,2.24c0,.05-.52.41-1.46,1.19a14,14,0,0,0,1.2,1.92,9,9,0,0,1,.93,1.51,8.06,8.06,0,0,0,.57,1,1.63,1.63,0,0,0,.11.31c.57.78,1.4,1.87,2.44,3.38v.21c.42.36.94.88,1.61,1.51.26.31.68.78,1.2,1.4a.47.47,0,0,0-.47.49v0a.57.57,0,0,0,.36.57c.06-.41.21-.57.47-.57h.11c.25.11.49.23.73.36l2,1.1a2.26,2.26,0,0,0,1.35.41ZM69.38,128.84c-.26-.1-.41-.26-.41-.47v-1.76a.46.46,0,0,0,0-.21l-.06-.16a4.77,4.77,0,0,0-1-2.39,3.58,3.58,0,0,0-2-1.71,1.65,1.65,0,0,0-.42-.21c-1-.21-1.61-.37-1.71-.37H62.37a4.19,4.19,0,0,0-1.41.21c-.05,0-.15.16-.36.42,0,.67.1,1,.1,1.09l-.05.11,0,.15v2.29c0,.1-.06.21-.1.31a1.92,1.92,0,0,0-.11.31l.16.78a2,2,0,0,1,0,.78,5.2,5.2,0,0,0,0,2.08c0-.16-.06.11-.06.78v2.34a1.84,1.84,0,0,1,0,.52v.36c0,.16.11.31.21.57.26.05.62.16,1.09.26l3,.05c.31-.15.78-.36,1.45-.62a3.18,3.18,0,0,0,.94-.42,5.83,5.83,0,0,0,1.3-1.66,6,6,0,0,0,.47-1.71c0-.21.05-.52.1-.94,0-.21,0-.41.1-.62s.21-.21.37-.16Zm-.93,10.24a.32.32,0,0,1-.37.16.33.33,0,0,1,.21-.26l.16.1Z"/><path class="cls-1" d="M108.89,132.89a22.77,22.77,0,0,1-.21,4.21c-.21.94-.47,1.82-.68,2.76a12.63,12.63,0,0,1-3.43,6.39,12.34,12.34,0,0,1-2.49,1.82,7.31,7.31,0,0,1-2.91,1.2c-.16.1-.31.15-.47.26-2.29.31-3.38.52-3.27.52h-15c-.11-.58-.11-.89.15-1a4,4,0,0,1,1.3-.37c.11-.1.21-.31.42-.52a3.63,3.63,0,0,0,1.09-2.54s0-.21-.16-.58c.06-.2.11-.46.16-.67a4.94,4.94,0,0,0-.26-.57,1.16,1.16,0,0,1,.11-.52,2,2,0,0,0,.15-.58c0-.62,0-1.56,0-2.85v-2.65c0-1.82,0-4.42.06-7.85a.82.82,0,0,0-.11-.31.55.55,0,0,1-.1-.37c0-.26.05-.67.1-1.19a6.09,6.09,0,0,0,.11-1.2.9.9,0,0,0-.16-.36,1.65,1.65,0,0,1-.21-.42c0-.31,0-.78,0-1.35a2.91,2.91,0,0,0-1.2-2,8.15,8.15,0,0,0-2.18-.57,2.56,2.56,0,0,1,0-.62,2.87,2.87,0,0,1,2-.26.92.92,0,0,0,.47.21l.42-.21h.67a3.59,3.59,0,0,1,.73-.05,1.67,1.67,0,0,1,1.46.73h.16a6.38,6.38,0,0,1,.67-.94c.37,0,.89.16,1.56.21a.83.83,0,0,0,.21-.16.54.54,0,0,1,.26-.21,7.27,7.27,0,0,1,2.13-.2h5.82a30.06,30.06,0,0,1,5.35,1.55,12,12,0,0,1,4.89,4.06c.26.36.62.88,1.09,1.66a17.55,17.55,0,0,1,1.35,5.56Zm-1,0c-1.87-.1-3.17-.15-4-.15-.16-.11-.26-.21-.26-.37s0-.26.1-.41c-.31-.68-.73-1.67-1.3-3a14.7,14.7,0,0,0-2.7-4A8.66,8.66,0,0,0,95,122.81a7.67,7.67,0,0,1-1.35-.26H91.27c-.42,0-.84.12-1.25.21a14.59,14.59,0,0,1-1.61.26,16.52,16.52,0,0,0-.26,3.58,18.48,18.48,0,0,0,0-3v9.3c0,6.34,0,9.2,0,8.63,0,.88.1,1.3.15,1.15,0,.52,0,1,0,1.55a2.65,2.65,0,0,0,.16.63,4.22,4.22,0,0,1,.1.62l-.78.31a1.31,1.31,0,0,0-.67.58,1.43,1.43,0,0,0,1,.41,5.8,5.8,0,0,1,.93,0c3.07.37,4.89.52,5.35.52a10.14,10.14,0,0,0,3.9-.67,8.3,8.3,0,0,0,2.45-1.56,10.69,10.69,0,0,0,2.7-5.2,36.31,36.31,0,0,0,.47-5,1.38,1.38,0,0,0-.42-.83c0-.21,0-.31.16-.36a7.83,7.83,0,0,1,1.46-.26c.62-.06,1.5-.16,2.7-.32,0-.05.1-.15.1-.31Zm70.16,18.66V152c-.05.21-.1.37-.31.42a5,5,0,0,1-1,.2c-.15.06-.57.16-1.14.32a5,5,0,0,1-1.14.26.48.48,0,0,1-.26-.06c-.11,0-.21-.1-.42-.25a.64.64,0,0,1-.31-.47c-.16-.11-.42-.05-.88.05.31.16.62.42,1,.67a3.39,3.39,0,0,1-2.08-.31,6.23,6.23,0,0,1,.15-.62l-.1-.11a14.15,14.15,0,0,0-1.72-.2s0,0-.15.1c.1,0,.26.16.47.26a2.15,2.15,0,0,1-1.15-.1c-.15-.21-.31-.47-.47-.68-.31-.36-.57-.52-.83-.47a25.08,25.08,0,0,0-2.23-2.49,8.22,8.22,0,0,1-1.61-1.87,3.87,3.87,0,0,1-.52-.47,5.6,5.6,0,0,1-.73-1.25.41.41,0,0,0-.31-.26,3.44,3.44,0,0,0-1.25-1.66.41.41,0,0,0,0-.47c-.31-.41-.68-.83-1-1.24a2.56,2.56,0,0,1-.68-1.51v-.21c.06,0,.21,0,.47,0a2.51,2.51,0,0,0,.31.26,1.4,1.4,0,0,0,.73-.36,9.6,9.6,0,0,1,1,1,.33.33,0,0,0,.31-.36.46.46,0,0,0-.39-.53.37.37,0,0,0-.18,0l.1-.16.11-.15a4,4,0,0,1,.41.31.4.4,0,0,0,.26-.1,1.13,1.13,0,0,0,0-.63,1.81,1.81,0,0,0-1.14-.41,3.68,3.68,0,0,0-1.09.2,6.39,6.39,0,0,1-1,.21,1.44,1.44,0,0,1-.68-.15,2.29,2.29,0,0,1-.94-1.51l-.26-.26.06-.16a.8.8,0,0,0-.37-.62,1.26,1.26,0,0,0-.67-.26H150a.19.19,0,0,0-.21.17v0a5.47,5.47,0,0,0,0,1.4v2.76c.05,1.61.1,2.59.1,3a.88.88,0,0,1-.1.36.56.56,0,0,0,0,.42c.15.29.29.58.41.88a8.15,8.15,0,0,1,.16,2l-.94.68c0,.1,0,.15,0,.15a19.88,19.88,0,0,1,3.69.52c.16.05.37.11.63.21a2.88,2.88,0,0,1-.05.88,1.1,1.1,0,0,1-.58.26c-.41,0-1.5-.15-3.27-.41l-4.47-.11a10.7,10.7,0,0,1-1.35.26c-1,.05-2.13.05-3.48.05v-1a10.78,10.78,0,0,1,1.92-.63,2.86,2.86,0,0,0,1.4-1.14,3.54,3.54,0,0,0,.78-1.56c.16-2,.26-3.06.26-3.27V126.4a3,3,0,0,0-.05-.52,2.2,2.2,0,0,1,0-.57c0-.21,0-.63,0-1.3s.1-1.25.1-1.61c0-.16,0-.52-.1-1a8.09,8.09,0,0,1-.1-1.2c-.06-.41-.11-1-.21-1.82-.16-.31-.26-.62-.42-.93-.1-.52-.67-.89-1.61-1.15a4.78,4.78,0,0,0-.62-.26,7.18,7.18,0,0,1-1,0c-.31-.21-.37-.57-.16-1,.57-.15,1.2-.26,1.77-.36,2.23-.21,3.48-.26,3.85-.26h2.91l1.14-.16c.73-.1,1.09-.15,1.2-.15h1.66c.22,0,.45,0,.67,0,.42,0,.73.1.89.1s.62-.1,1.14-.15c1.4.2,3,.52,4.78.93.68.16,2,1.1,4,2.76a.61.61,0,0,1,0,.46,5.13,5.13,0,0,1-1.4.94,4.3,4.3,0,0,0-1.4,1,.55.55,0,0,0,.46.31,1.42,1.42,0,0,0,.68,0,.65.65,0,0,1,.26-.26c.36,0,.68-.11.83-.11a1.28,1.28,0,0,0,.47.73.41.41,0,0,0,.31-.46,1.08,1.08,0,0,0-.31-.63,1.3,1.3,0,0,1,.62,0,2.3,2.3,0,0,0,.78.11c.16.73.26,1.5.42,2.23a12.39,12.39,0,0,1,.31,2.5,5.19,5.19,0,0,1-.21,1.56,27.68,27.68,0,0,1-1.19,3.42,22.08,22.08,0,0,1-2,2.86c-.05.05-.68.57-1.92,1.56a14.59,14.59,0,0,0,1.61,2.5,10.88,10.88,0,0,1,1.24,2,8.23,8.23,0,0,0,.79,1.35,2.39,2.39,0,0,0,.15.37q1.17,1.49,3.28,4.36a.24.24,0,0,1,0,.26,22.1,22.1,0,0,1,2.13,2c.36.41.88,1,1.56,1.82-.42,0-.68.26-.68.62a.78.78,0,0,0,.52.78c.06-.52.26-.78.63-.78h.15a5.83,5.83,0,0,1,1,.52c.94.47,1.82.94,2.76,1.4a2,2,0,0,0,1.56.47Zm-16.47-25.57c-.36-.1-.57-.31-.57-.57v-2.29a.47.47,0,0,0-.05-.26l-.11-.21a7,7,0,0,0-1.3-3.11,5,5,0,0,0-2.7-2.24,3.68,3.68,0,0,0-.57-.26c-1.4-.31-2.18-.47-2.34-.47h-1.82a7.4,7.4,0,0,0-1.87.26c0,.06-.21.21-.47.52a5.6,5.6,0,0,1,.11,1.41l-.06.1-.05.21v3a1,1,0,0,1-.15.36.7.7,0,0,0-.11.42,6.54,6.54,0,0,0,.26,1,1.5,1.5,0,0,1,0,1,6.69,6.69,0,0,0,0,2.71c0-.21-.05.1-.05,1v3.07a3,3,0,0,1-.05.67.77.77,0,0,0,0,.52,2.65,2.65,0,0,0,.26.73c.31.11.78.21,1.46.37l4,.1c.41-.21,1.09-.47,1.92-.78a10,10,0,0,0,1.3-.57,8.37,8.37,0,0,0,1.71-2.18,7.64,7.64,0,0,0,.68-2.19,7.38,7.38,0,0,1,.16-1.24c.05-.21.05-.47.15-.84,0-.15.11-.2.31-.15Zm-1.25,13.3a.52.52,0,0,1-.46.26.53.53,0,0,1,.31-.36l.15.1Z"/><path class="cls-1" d="M179.62,124.94c-.05.26-.1.52-.15.83,0,0-.31.11-.89.26a.91.91,0,0,0-.67.68,2.39,2.39,0,0,0-.26.67c0,.11-.16.84-.37,2.24l-.05,10c0,.31-.1.52-.1.57a1.6,1.6,0,0,1,.1.42l0,3a9.88,9.88,0,0,0,0,1.72,7.4,7.4,0,0,0,.42,2.08,1.2,1.2,0,0,0,.52.57,2.5,2.5,0,0,0,1.46.57,2.58,2.58,0,0,1-.16.73h-1.66a2.42,2.42,0,0,1-.47,0c-.16,0-.31-.05-.47-.05a1.08,1.08,0,0,0-.36.05c-.11,0-.26,0-.37,0a.8.8,0,0,1-.26,0l-.26-.05a.54.54,0,0,0-.21.05c-.05,0-.1,0-.2,0l-3,.1c-.26,0-.36-.1-.36-.36s0-.47.21-.52c.31-.1.62-.16.93-.26a.93.93,0,0,0,.68-.52,4.5,4.5,0,0,0,.15-.73,4.58,4.58,0,0,1,.63.1,7.1,7.1,0,0,0,.15-1,1.66,1.66,0,0,0-.15-.58,1,1,0,0,0,0-.67,4,4,0,0,0-.26-.68,2.36,2.36,0,0,1-.16-.47,5,5,0,0,0,.26-1.14,1,1,0,0,0-.1-.47,3,3,0,0,0,.26-.73s0-.46,0-1.24a1,1,0,0,0-.11-.37c0-.1,0-.21-.1-.31a.48.48,0,0,1,.16-.26c-.06,0-.06,0-.06-.21v-2.33a1.15,1.15,0,0,1,.06-.37.87.87,0,0,0,.05-.36l-.05-.16-.06-.15v-5.36a1.26,1.26,0,0,0-.2-.62,1.61,1.61,0,0,0-.11-.78,4.59,4.59,0,0,0-.1-.83,4,4,0,0,1-.31-.52c-.06-.11-.11-.31-.21-.57a1.68,1.68,0,0,0-.52-.78,6.13,6.13,0,0,1-1-.42A2.33,2.33,0,0,1,172,125h.15a1.09,1.09,0,0,1,.26.05,1.22,1.22,0,0,0,.26.06h5.51l1.4-.16Zm29.52-4.26-1.14.26a2,2,0,0,0-1.19,1.14,8.28,8.28,0,0,0-.78,2.55,35,35,0,0,0-.26,3.59c0,.05,0,.73.1,2.08s.1,2,.1,2.07v3.8a2,2,0,0,0,.06.47,4.21,4.21,0,0,1,.05.62c-.05,1.09-.11,2.13-.11,3.22,0,.11.06.37.11.78s.1.62.1.68v7.33c0,.1,0,.15,0,.15l.05.05a7.48,7.48,0,0,0-1.3.32c-.57,0-.93-.06-1-.21-.94-1-2.34-2.81-4.21-5.35-.32-.52-.84-1.25-1.46-2.19-.84-.93-1.61-1.87-2.34-2.86-.42-.73-.78-1.4-1.25-2.13-1.77-2.54-3.53-5.09-5.25-7.64a12.32,12.32,0,0,1-1.2-1.3.84.84,0,0,0-.15-.46c-.26-.47-.52-.94-.78-1.36a.89.89,0,0,0-.47.73l.31,2.45a1.13,1.13,0,0,1-.05.41,1.21,1.21,0,0,0,0,.42c0,.62,0,1.61,0,3l.05,1.92v3.38c0,.11,0,.89,0,2.45s.05,2.33.05,2.39a9.15,9.15,0,0,0,.47,3.32,2.8,2.8,0,0,0,2.6,1.93.39.39,0,0,1,.26.2,1.51,1.51,0,0,1-.1.73H183.3a7.54,7.54,0,0,0-.78.16,3.33,3.33,0,0,1-.78.1h-.31c-.1-.15-.15-.2-.15-.26a1.08,1.08,0,0,1,.41-.88c.37-.16.89-.36,1.56-.68a2.65,2.65,0,0,0,1.2-2.07c.36-2.29.41-3.69.21-4.21a.74.74,0,0,1-.06-.58c.06,0,.11-.15.16-.2a.65.65,0,0,0-.16-.21,6.65,6.65,0,0,1,.06-.89c0-.32.05-.65.05-1s-.05-.63-.11-1.15a8.77,8.77,0,0,1-.1-1.14,4.48,4.48,0,0,1,.05-.73c0-.42,0-.68,0-.78a1.51,1.51,0,0,0-.21-.47l.11-.1a1.15,1.15,0,0,0,.1-.52v-.16a34.07,34.07,0,0,1-.26-3.64v-3.32c-.1-1.87-.15-3-.15-3.43a.81.81,0,0,1,.05-.31,1.21,1.21,0,0,0,0-.42,4.46,4.46,0,0,0-3.53-1.77h-.37l-.1-.1v-.78c.15-.21.52-.32,1.09-.32.05,0,.63.06,1.67.06s1.56,0,1.66,0,.57,0,1.56,0,1.51-.06,1.56-.06a1.37,1.37,0,0,1,.57.06,8.3,8.3,0,0,1,1.2,1.56c1.14,1.87,2.85,4.62,5.14,8.31.47.68,1.14,1.72,2.08,3.06,0,1.3,0,1.72,0,1.2,0,.62.21.94.52.94a.92.92,0,0,0,.31-.16.69.69,0,0,1,.36-.16c.21,0,.42.32.73.89.16.31.26.62.42.88a11.16,11.16,0,0,1,1.87,2.13c.05.26.16.68.31,1.2.11.15.21.26.26.26l.21-.11.1-.1c.37.47.89,1.14,1.51,2,.21-.16.37-.26.37-.37a3,3,0,0,1-.06-.42c-.05-.1-.05-.26-.1-.41v-2.91c0-.21-.05-.37-.05-.57a8.13,8.13,0,0,0,.1-1.3c0-.47-.15-1.15-.26-2a3.59,3.59,0,0,1,0-.73c.06-.36.11-.52.11-.57a2,2,0,0,0-.05-.42c-.06-.15-.06-.31-.11-.41v-1.14c0-.62,0-1,0-1.25a1.89,1.89,0,0,0-.1-.41,1.18,1.18,0,0,1-.1-.42l.05-.67a5.84,5.84,0,0,0-.05-.73,4.72,4.72,0,0,1-.11-.83c0-.06,0-.21.11-.47a2.42,2.42,0,0,0,.05-.47c-.11-.93-.26-1.92-.42-2.86s-1-1.4-2.34-1.66a1.65,1.65,0,0,0-.1-.88,2.71,2.71,0,0,1,1.46-.21l3.74.21a9.73,9.73,0,0,0,1.2-.11c.57,0,1-.1,1.3-.1a2.73,2.73,0,0,1,1.19.21l-.15.88Zm-7.64,18.24-.2.26-.11-.1.11-.52c0,.05,0,.15.1.21a.49.49,0,0,1,.1.15Z"/><path class="cls-1" d="M232.74,120.42c0,.11,0,.26,0,.42a12.36,12.36,0,0,1-.2,1.82,10.26,10.26,0,0,0-.21,1.92,2.56,2.56,0,0,0,.05.62,11.08,11.08,0,0,0-.21,1.15,1.65,1.65,0,0,0,.16.36,1.43,1.43,0,0,1,.1.42,3.35,3.35,0,0,1-.21.36c0,.16.06.62.16,1.35a1.51,1.51,0,0,1-1,.57c-.15,0-.26-.1-.41-.31a8.15,8.15,0,0,0,.1-1.71,6.09,6.09,0,0,0-.26-1,8.57,8.57,0,0,0-1.71-2.29,8.35,8.35,0,0,0-2.24-1.25,14.57,14.57,0,0,0-1.46-.31,13.65,13.65,0,0,0-2.39-.15,9.92,9.92,0,0,0-7.07,2.44,5.44,5.44,0,0,0-.93.73,11.68,11.68,0,0,0-2.24,5.5c-.05.73-.1,2-.1,3.69v1.56a6.92,6.92,0,0,1,.31,1.25q.06,1,.21,2a2.88,2.88,0,0,1,.47.72,3.36,3.36,0,0,0,.15.84c.21.31.58.73,1,1.35a8.29,8.29,0,0,0,.31.83,8.19,8.19,0,0,0,3.17,3.17,6.34,6.34,0,0,0,1.88.78,32.69,32.69,0,0,0,5.71,1.09,4.08,4.08,0,0,0,1.15-.15,4.37,4.37,0,0,0,.78-.31c0-.63.1-.94.1-.94a.56.56,0,0,0-.26-.47,1.19,1.19,0,0,1-.57-.36,2.15,2.15,0,0,1,0-1.46v-3.74a14,14,0,0,0-.37-2.13,1.38,1.38,0,0,1-.36-.47,2.28,2.28,0,0,0-1.66-1.61,9.9,9.9,0,0,0-2.24-.16.62.62,0,0,0-.21-.15v-.52a6.55,6.55,0,0,1,1.87-.21l1.62.15c1,.11,1.5.16,1.61.16a.75.75,0,0,0,.36-.1.88.88,0,0,1,.42-.11,13.47,13.47,0,0,1,1.56-.1h2.7v1a1.67,1.67,0,0,1-.21.52,1.77,1.77,0,0,0-.26.67,17.81,17.81,0,0,0-.47,3.33c-.05,1-.05,1.92-.05,2.91a35.14,35.14,0,0,0,.37,4.47,12.25,12.25,0,0,1-2.71.94,15.13,15.13,0,0,1-2.91.57,6.57,6.57,0,0,0-1,0,7.83,7.83,0,0,1-1.46.26,1.12,1.12,0,0,1-.31-.05c-.1-.05-.21-.05-.31-.11a24.34,24.34,0,0,1-3.9-.41c-.57-.21-1.14-.42-1.71-.58a11.34,11.34,0,0,1-5.1-3,10.94,10.94,0,0,1-3.53-5.09c-.1-.37-.31-.89-.52-1.61l-.47-1.1a7.34,7.34,0,0,1-.26-1.92,6.61,6.61,0,0,0,.11-.88,2.79,2.79,0,0,0,0-1.15,2,2,0,0,1-.06-.78,10,10,0,0,1,.37-2.29,25.16,25.16,0,0,0,.57-2.49c1.51-2.75,2.39-4.16,2.7-4.16l.16.11c.05,0,.1.1.16.1a.8.8,0,0,0,.62-.21,3.93,3.93,0,0,1,.36-.78c1.41-1.61,2.24-2.44,2.55-2.44l.16,0,.15,0a1.48,1.48,0,0,0,.47-.31c.26-.21.42-.31.52-.31a1.17,1.17,0,0,1,.26.1c.1.06.16.06.26.11s.73-.16,2-.47,1.92-.47,2-.47h5.88c.05,0,.78.06,2.08.21s2,.21,2.07.21h.84a1.09,1.09,0,0,1,.83-.26ZM256.29,152a22.94,22.94,0,0,1-1.51,4.94,6.11,6.11,0,0,1-.89,1.3,9.1,9.1,0,0,1-3.53,3.17,8.66,8.66,0,0,1-1.14.57,17.07,17.07,0,0,1-5.93.88c-.67,0-1.3,0-1.87-.1a2.33,2.33,0,0,1,.16-1.14,2.7,2.7,0,0,0-1.62-.89,1.2,1.2,0,0,0-1,.52,1.32,1.32,0,0,0,.83.32.53.53,0,0,1-.31.57,1.05,1.05,0,0,1-.78,0l-3.28-1.25c-.31-.1-.62-.16-.93-.26a2.13,2.13,0,0,1-1-.68l-.26-1.61c-.16-.73-.31-1.87-.52-3.53V150.2h0a10.55,10.55,0,0,1,1.25.11c0,1.25.26,1,.67,3.53.16.26.37.63.57,1a5.8,5.8,0,0,0,2.4,2.71,12.4,12.4,0,0,0,2.91,1.14c.26.1.93.26,2,.52a16.29,16.29,0,0,0,2.86.41,2.5,2.5,0,0,1,1.66-1,6.32,6.32,0,0,0,2-.68,2.39,2.39,0,0,0,.73-1.14l.62-1.56c.11-.47.31-1.15.63-2.13a3.6,3.6,0,0,1-.06-.73,6.47,6.47,0,0,0-.57-2.6,4.33,4.33,0,0,0-1.56-2.13,6.62,6.62,0,0,0-.67-1c-.83-.52-2-1.25-3.59-2.13a12.26,12.26,0,0,0-1.51-1.15,22.34,22.34,0,0,1-5.87-3.95,8.72,8.72,0,0,1-1.87-2.7l-.16-.62a3.07,3.07,0,0,0-.41-.47c-.05-.05-.05-.15-.11-.21v-1.19a1.94,1.94,0,0,0-.46-1.2c0-.52.05-1.35.1-2.49l-.31-.32a1.27,1.27,0,0,1,0-.67,3.25,3.25,0,0,0,.31-.42s.21-.78.57-2.28a4.2,4.2,0,0,1,1.61-2.45,4.87,4.87,0,0,0,.37.52,5.54,5.54,0,0,1,.57-1.46,16.11,16.11,0,0,1,4.16-3.32c.41,0,1,0,1.82-.11s2-.2,3.48-.41a2.66,2.66,0,0,0,.31.26c.78.15,2,.26,3.59.41a12,12,0,0,0,2.08,0,5.17,5.17,0,0,0,1.4-.26,1.12,1.12,0,0,1,.73.21l-.57,11.64a2.17,2.17,0,0,1-1.1.11,11.62,11.62,0,0,1-.26-1.77,8.24,8.24,0,0,0-.88-3.64,5.07,5.07,0,0,0-2.6-2.6,8.65,8.65,0,0,0-3.22-.57,7.32,7.32,0,0,0-3.17.57,2.16,2.16,0,0,0-.57,0,6,6,0,0,0-2,2,4.9,4.9,0,0,0-.94,2.55,4.68,4.68,0,0,0,.16.83c.11.41.16.73.21,1a5.9,5.9,0,0,0,2,4.1,21.61,21.61,0,0,0,3,2.29,30.17,30.17,0,0,1,2.81,1.35c3.37,2,5.66,3.9,7,5.87.1.32.31.78.62,1.51a12.76,12.76,0,0,1,.68,2.49c.12,1.34.17,2.67.16,4ZM125.93,128.17a2.5,2.5,0,0,1-.05.72l-.15.63a2.91,2.91,0,0,1-.16.88,4.28,4.28,0,0,0-.37.57,3.1,3.1,0,0,1-.36.73c-.16.16-.42.42-.73.78l-.21.11c-.1.1-.26.2-.36.31a6.56,6.56,0,0,1-2.5.88h-1l-.1-.05a2.78,2.78,0,0,1-1.3-.26.81.81,0,0,1-.31-.1c-.31-.16-.68-.32-1-.47a5.83,5.83,0,0,1-1.46-1.51,4.52,4.52,0,0,1-.67-1.4,11.74,11.74,0,0,1-.32-1.3,11,11,0,0,1,.06-1.82c0-.05,0-.21.1-.31a5.93,5.93,0,0,0,.16-.73c.1-.21.26-.52.46-.88a.34.34,0,0,0,.06-.21s0,0,.15.05v-.37s.16,0,.31-.15a1.67,1.67,0,0,1,.32-.42c.31-.15.78-.46,1.45-.83a1.8,1.8,0,0,1,.63-.21,8.7,8.7,0,0,1,1.35-.26h.62a4.82,4.82,0,0,1,1.25.16,11.05,11.05,0,0,1,1.25.47l.62.41a4.24,4.24,0,0,1,1.15,1.2,4.71,4.71,0,0,1,.62,1.25.69.69,0,0,1,.15.31,4.84,4.84,0,0,1,.21,1.51.88.88,0,0,0,0,.15.57.57,0,0,1,.11.16Zm-1.82.25a6.35,6.35,0,0,0-.41-2,5.47,5.47,0,0,0-1-1.82,2.87,2.87,0,0,0-1.71-1.09,3.74,3.74,0,0,0-1.2-.11,3.41,3.41,0,0,0-1.09.31c-.26.16-.47.32-.73.47l-.16.16-.16,0c-.15.21-.26.42-.41.62s0,.21-.1.32-.16.31-.26.46-.11.52-.21.94v.73l-.05.1-.06.11.32,1.56v.15l.15.31a1.13,1.13,0,0,0,0,.32,7.14,7.14,0,0,0,.37.73,2.56,2.56,0,0,0,.67.83,1.5,1.5,0,0,1,.11.36,1.19,1.19,0,0,1,.26,0,3.8,3.8,0,0,0,.62.52,2.09,2.09,0,0,0,1,.21,4,4,0,0,0,1.09,0l.32-.1.78-.31a1.3,1.3,0,0,1,.31-.26,3.37,3.37,0,0,0,.62-.63,1.94,1.94,0,0,0,.37-.73,3.28,3.28,0,0,0,.2-.31,1.4,1.4,0,0,1,.06-.41l.1-.16c0-.11,0-.42.1-.88v-.52Zm11.75-5.71a11.57,11.57,0,0,1-.05,2.28c0,.11-.06.21-.21.37h-.26a5.16,5.16,0,0,0-.11-.88c-.1-.37-.25-.58-.52-.63a8.66,8.66,0,0,0-1.61-.1h-1.4c-.26,0-.42.26-.42.83a5.88,5.88,0,0,1,.11.94,5.81,5.81,0,0,1,0,.72c-.06.26-.06.52-.11.78a2.61,2.61,0,0,0,.11.68h1a.85.85,0,0,1,.26,0,.81.81,0,0,0,.31,0h1a1.12,1.12,0,0,0,1-.67,1.58,1.58,0,0,1,.11-.37c0-.05.15-.1.36-.05,0,.16.05.42.05.78s-.1,1.25-.2,2.5c0,.15-.16.2-.42.2l-.16-.73a.88.88,0,0,0-.46-.57,4.11,4.11,0,0,0-1,0h-1.2c-.05,0-.15,0-.36,0a.44.44,0,0,0-.37.16v.62c0,.05-.05.21-.1.52a1,1,0,0,0,0,.52c0,.11,0,.21.1.31a8409087015898.12,8409087015898.12,0,0,0-.1.94,1.46,1.46,0,0,0,.41,1.09s.42.16,1.2.52a.52.52,0,0,1-.47.21h-.21l-.2-.05c-.63,0-1.25,0-1.87-.1h-.78a.94.94,0,0,1-.32.15.67.67,0,0,1-.31-.05c-.1,0-.21,0-.31-.1a1.22,1.22,0,0,1,.36-.42,3.62,3.62,0,0,0,.42-.36,2.6,2.6,0,0,0,.31-1.15v-4.37a1,1,0,0,0-.1-.41,1.82,1.82,0,0,0,.26-1,4.75,4.75,0,0,0-.26-1.35v-.42a.47.47,0,0,0-.05-.26,1.67,1.67,0,0,0-.47-.67.68.68,0,0,0-.42-.11c-.05,0-.05-.21-.05-.36h1.1c1.19,0,3,0,5.4,0a7.18,7.18,0,0,1,1,0ZM118.29,138l-.05,0a.34.34,0,0,1-.26.05l0-.05a.75.75,0,0,0,0-.16,4.41,4.41,0,0,0-.37-.62.84.84,0,0,0-.67-.36l-.16-.06h-.31a.73.73,0,0,1-.36,0l-.16.06-.16,0a1.44,1.44,0,0,1-.46.05h-.47l-.16.1-.1.16v.31c0,.16-.1.37-.16.52a2.25,2.25,0,0,0,.06.63l0,.57v1a.75.75,0,0,1,0,.26l0,.2-.11.16.16.1.05.11-.15.16c0,.1.1.15.1.25a.92.92,0,0,1,0,.37.79.79,0,0,0-.11.36.7.7,0,0,0,.06.32,1.06,1.06,0,0,1,0,.31.47.47,0,0,1,0,.26v.1l.1.05.05.11-.15.62,0,1v.52a1.46,1.46,0,0,0,.21.57l.15.11c0,.1.16.2.26.36a.41.41,0,0,0,.26.11c.1,0,.31.05.52.05v.15h-1.51a.8.8,0,0,1-.26-.05.47.47,0,0,1-.26,0h-1l-.21,0c-.11,0-.21.05-.31.05h-.89v-.05c0-.1.11-.15.32-.15a1.91,1.91,0,0,0,.41-.11,1.34,1.34,0,0,0,.62-1v-.36A.85.85,0,0,1,113,145v-.21a1.52,1.52,0,0,0,.1-.47,1.13,1.13,0,0,0,0-.41c0-.11-.05-.16,0-.26s0-.52.1-1a.44.44,0,0,1,.06-.16v-.21l-.06-.1.06-.05,0,0v-.73a.58.58,0,0,1,0-.26l0-.11v-.41a1.48,1.48,0,0,1,0-.47.28.28,0,0,1,.1-.21l.16-.05a.54.54,0,0,1,.21.05l.26,0a.26.26,0,0,0,.2-.1c0-.05-.1-.1-.2-.1l-.31-.06-.11-.1a.68.68,0,0,1-.31-.11v-.93a.58.58,0,0,1,0-.26v-.37l0,0-.1-.05h0l0-.1,0-.06a1.28,1.28,0,0,0,0-.52l-.21,0h-.2a.3.3,0,0,1-.26-.15,1,1,0,0,1-.42.2h-.1a.86.86,0,0,1-.32,0c-.1,0-.2-.05-.31-.05a.4.4,0,0,0-.26.05l-.41.11c0,.05-.16.1-.21.15l-.73.78a2.77,2.77,0,0,0-.1.26c-.06.16-.11.21-.16.21l-.16-.05a.31.31,0,0,1,.06-.21.5.5,0,0,0,0-.21c0-.21.1-.52.15-.88a3.78,3.78,0,0,1,.06-.47.62.62,0,0,1,.15-.47,3.35,3.35,0,0,1,.63-.05c.05,0,.1.05.2.11h.11l.1-.06h.26l.26-.05h.31a.67.67,0,0,0,.31.05l.11-.05.1-.05h1s.16.05.21.05a4.72,4.72,0,0,0,1.3,0,.33.33,0,0,1,.21.05,1.92,1.92,0,0,0,.41-.05h.21l.05-.05.1,0h1.41l.1,0,.16.05.62-.1c.1,0,.1.15.1.26l0,.31v1a2,2,0,0,0,.06.26Zm12.27-1.87c0,.15-.06.26-.21.26s-.16.05-.26.05a1.33,1.33,0,0,0-.68,1.25,5,5,0,0,1-.15,1.09v.16a.9.9,0,0,0,.05.36c.05.21.1.31.1.37a5.34,5.34,0,0,1-.1,1c-.05.21-.05.52-.1.94v.52a3,3,0,0,1,0,.52l.05,1.66.1.83a2.31,2.31,0,0,0,.31.89c.06.1.21.15.42.21s.26.1.26.2l-.1.21h-3.64c0-.05,0-.1,0-.21s0-.15.15-.2.26-.16.42-.21.31-.21.31-.37c.1-.62.16-1.19.21-1.71v-.47c0-.16,0-.31,0-.47s-.06-.41-.06-.62a3.21,3.21,0,0,1,0-.62,1.67,1.67,0,0,0-.1-.63,2.69,2.69,0,0,1-1.25.47,4.09,4.09,0,0,1-.78,0,.33.33,0,0,1-.21,0s-.15-.05-.2-.05h-1.77a.59.59,0,0,0-.42.21.62.62,0,0,0-.2.72.44.44,0,0,1,.1.26V143a2,2,0,0,1-.05.26,1.48,1.48,0,0,0,.05.47l0,.31v.84a1.57,1.57,0,0,0,.16.67,1.22,1.22,0,0,0,.52.62.88.88,0,0,1,.47.16c.05.21-.11.31-.42.31a1.48,1.48,0,0,1-.47-.05h-1.61l-.1.05h-1.51c0-.21.05-.31.36-.41a1,1,0,0,0,.73-.63c.06-.26.06-.46.11-.73a8.62,8.62,0,0,0,.1-1.14.56.56,0,0,0-.1-.26.68.68,0,0,1-.11-.31.64.64,0,0,1,.06-.31l0-.26v-1.46l0-.16.05-.15c0-.25-.09-.49-.15-.73l0-.58v-1.92a1.24,1.24,0,0,0-.21-.52c-.16-.26-.31-.41-.42-.41a1,1,0,0,1-.46-.21.09.09,0,0,1,0-.14l0,0c0-.1.1-.15.15-.21s.37-.05.78-.1a7.3,7.3,0,0,1,.94-.05h1.66c.31.1.42.21.42.31l-.11.16s-.15.05-.21.05c-.46.21-.72.41-.72.52-.06.62-.16,1.25-.26,1.87v.73a2.59,2.59,0,0,0,.1.83c0,.05.1.11.26.16a6.55,6.55,0,0,0,1.4,0,2.16,2.16,0,0,0,.57,0h1.62a1.27,1.27,0,0,1,.41.15.88.88,0,0,0,.42.11,1,1,0,0,0,.26-.73c0-.06-.06-.37-.11-.89a5.75,5.75,0,0,1,0-.83c0-.1-.05-.15-.05-.26a.65.65,0,0,1,0-.31,1.74,1.74,0,0,0-.31-1.09,1.56,1.56,0,0,0-.52-.32c-.21-.1-.31-.15-.31-.26V136a.4.4,0,0,1,.26-.15h.88s.16,0,.31.1a1.8,1.8,0,0,0,.52-.05,1.56,1.56,0,0,1,.52-.11h.52c.16,0,.31-.05.42-.05a8.75,8.75,0,0,1,.83.37ZM121.62,139c0-.16-.06-.32-.06-.47a2.79,2.79,0,0,0-.1-1.46c0-.05-.1-.16-.26-.31a3.59,3.59,0,0,1,.1,1v1.2a7.88,7.88,0,0,0,.06,1.09,2.45,2.45,0,0,0,.26-1Zm19.18,5.14c0,.31-.06.68-.11,1.25-.1.21-.15.41-.26.62s-.05.31-.1.47a1,1,0,0,1-.21.31c-.16.16-.26.26-.36.26H135a3.15,3.15,0,0,1-.52-.05c-.15,0-.31,0-.52,0h-1.24l-.11-.11a7.44,7.44,0,0,1,.73-.52.75.75,0,0,0,.42-.67V143a12.35,12.35,0,0,1,.15-1.72,2.57,2.57,0,0,1,0-.83.44.44,0,0,1-.15-.36s0-.26.15-.68c0,0,0-.1-.1-.21s0-.15-.1-.2a1.88,1.88,0,0,1-.06-.58v-.57a1.52,1.52,0,0,0-.1-.47.69.69,0,0,0-.42-.36,1.92,1.92,0,0,0-.46-.21.5.5,0,0,1,.26-.31,3,3,0,0,0,.73,0,2.18,2.18,0,0,1,.52-.11h1.45a3.55,3.55,0,0,1,.47.06,5.19,5.19,0,0,0,.68,0l1.61-.11c.21,0,.83,0,1.82.06a.26.26,0,0,1,.15.2.3.3,0,0,1-.05.21.5.5,0,0,0,0,.21c-.05.62-.1,1.2-.16,1.82-.05,0-.15.1-.2.15a4.4,4.4,0,0,1-.32-.88.7.7,0,0,0-.57-.57l-.26,0a.65.65,0,0,0-.31-.05l-.16.05a5.1,5.1,0,0,1-1.56,0,5.35,5.35,0,0,0-1,0s-.11.1-.11.21a2.78,2.78,0,0,1,.06,1.71v.42a1.82,1.82,0,0,1-.06.46.75.75,0,0,0,0,.47c0,.05.06.11.16.21h3l.26-.1a.59.59,0,0,0,.32-.26,1.94,1.94,0,0,1,.3-.57h.16c.1,0,.15.1.2.2,0,.32-.05.73-.05,1.2,0,.31,0,.83-.1,1.46,0,.1-.11.1-.31.1a1.9,1.9,0,0,0-.37-.52,1.81,1.81,0,0,0-.52-.26,1,1,0,0,0-.41-.1h-1.1a1.84,1.84,0,0,1-.41-.05c-.16,0-.32-.06-.47-.06a.54.54,0,0,0-.52.26,1.28,1.28,0,0,0-.1.47,2.16,2.16,0,0,0,.05.57,3.35,3.35,0,0,1,0,.63,1.71,1.71,0,0,1-.1.46,1.52,1.52,0,0,0-.06.47.4.4,0,0,0,.06.26,1.65,1.65,0,0,0,1.09.78l.1.05.16.06h1.35a1.88,1.88,0,0,0,.78-.16,3.21,3.21,0,0,0,.83-.68,1.54,1.54,0,0,0,.47-1c.05-.16.21-.16.41-.11Zm-104.42-32h0c-.05.06-.1.06-.21.06l-.05-.06.05-.1a1,1,0,0,0-.26-.42.89.89,0,0,0-.52-.26l-.1,0h-.62l-.11,0a1.55,1.55,0,0,1-.31.06h-.36l-.11.05-.1.1v.21c0,.12-.08.24-.11.37a1,1,0,0,0,.06.41l0,.42v.67l0,.16,0,.1,0,.11.1,0v0l-.1.1,0,.16a.47.47,0,0,1,0,.26l-.06.21a.42.42,0,0,0,.06.21s0,.15,0,.2l0,.21v0l.1.06v.1c0,.16,0,.26-.1.42l0,.67v.37a.46.46,0,0,0,.15.36l.11.05c.05,0,.1.16.2.26l.21.11a.92.92,0,0,1,.37.05v.1H32.59l-.16,0a.39.39,0,0,0-.21.06H31.6v-.06s.1-.1.26-.1.21,0,.31,0a.87.87,0,0,0,.36-.42.56.56,0,0,0,.06-.31v-.26l0-.16v-.15a.67.67,0,0,0,0-.31.38.38,0,0,0,0-.26v-.16c0-.16,0-.36,0-.67V115l0-.06v-.73l0-.05v-.57l0-.1.1-.06.16.06.15.05.16-.05c0-.06-.05-.06-.16-.11l-.2,0-.11,0c-.1,0-.15,0-.26,0v-1l0,0,0,0h0l0-.06,0,0c0-.1.05-.21,0-.31l-.15,0h-.16a.26.26,0,0,1-.21-.11,1.4,1.4,0,0,0-.26.16h-.1a.31.31,0,0,1-.21,0c-.05,0-.16,0-.21,0l-.2,0a.86.86,0,0,1-.32,0l-.15.1-.52.52a.19.19,0,0,0,0,.16c-.06.1-.06.16-.16.16l-.1-.06.05-.15.05-.11a4.22,4.22,0,0,0,.1-.62,1.55,1.55,0,0,1,.06-.31.42.42,0,0,1,.1-.31,1.52,1.52,0,0,1,.42-.06l.15.06h.31l.16-.06h.21c.1,0,.15.06.26.06h1l.16.05h2.86a2.5,2.5,0,0,0,.47-.05l.1.15v.94l.26,0Zm8.84-1.24c0,.1-.06.15-.16.21l-.16.05a.77.77,0,0,0-.46.83,2.27,2.27,0,0,1-.11.73v.1a.75.75,0,0,0,.05.26l.06.26a3.36,3.36,0,0,1-.06.63c-.05.2-.05.41-.1.62v.36c0,.13,0,.25,0,.37l.05,1.09.11.52a1.86,1.86,0,0,0,.21.57.71.71,0,0,0,.31.16c.1,0,.21.1.21.16l-.11.1h-2.6l0-.16s0-.1.16-.15l.31-.16a.26.26,0,0,0,.21-.26c0-.41.1-.78.15-1.14v-.62a1.16,1.16,0,0,0,0-.42v-.42a.74.74,0,0,0-.1-.41,2.55,2.55,0,0,1-.89.31,1.82,1.82,0,0,1-.57,0l-.15,0H40.12a.89.89,0,0,0-.31.15.49.49,0,0,0-.15.52l.1.16v1.46a1.52,1.52,0,0,0,.1.47c.11.21.21.36.37.41a1.5,1.5,0,0,1,.36.11c0,.15-.05.21-.31.21a1.09,1.09,0,0,1-.36-.06h-1.1l0,.06h-1c0-.11.05-.21.26-.26s.47-.21.52-.42.05-.31.05-.47a7,7,0,0,0,.11-.78s-.06-.1-.06-.15,0-.16-.1-.21a.31.31,0,0,1,.05-.21.3.3,0,0,0,0-.16v-1l.06-.11,0-.1c0-.06,0-.21-.11-.47l.06-.42V111.9a1.53,1.53,0,0,0-.16-.37,1.94,1.94,0,0,0-.26-.31.51.51,0,0,1-.31-.11V111l.1-.1a5.51,5.51,0,0,1,.57-.06c.32,0,.52,0,.68,0h1.19c.21,0,.32.11.32.21l-.06.1-.15.06c-.37.15-.52.26-.52.36l-.16,1.25v.52a1.84,1.84,0,0,0,.05.57s.11,0,.16.1h2.6l.31.11c.16,0,.26.1.31,0a.64.64,0,0,0,.21-.47s0-.26-.1-.57v-.52a.17.17,0,0,0-.05-.15c0-.06-.06-.16-.06-.21a1.34,1.34,0,0,0-.2-.73.69.69,0,0,0-.37-.21c-.15,0-.21-.1-.21-.16v0l.21-.1h.63a.29.29,0,0,0,.2.05A.92.92,0,0,0,44,111c.21,0,.31,0,.36-.11H45c-.11-.1.1-.1.21,0Zm-6.4,1.92v-.31a2.07,2.07,0,0,0,0-1c-.05,0-.1-.16-.15-.21a3.85,3.85,0,0,1,.1.68v.78a3.59,3.59,0,0,0,.05.73A1.42,1.42,0,0,1,38.82,112.78Zm13.78,3.43c0,.21-.05.47-.05.83a1.52,1.52,0,0,0-.16.42.72.72,0,0,1-.11.31c-.05,0-.1.15-.15.21a.53.53,0,0,1-.26.15H48.44a1.49,1.49,0,0,1-.36,0,.92.92,0,0,1-.37,0h-.88l0-.11a2.47,2.47,0,0,1,.52-.31.5.5,0,0,0,.31-.47v-1.76c0-.31,0-.68.1-1.14a2.24,2.24,0,0,1-.05-.58.35.35,0,0,1-.1-.26,3.78,3.78,0,0,0,.1-.46l0-.16s0-.1-.11-.16a.87.87,0,0,1,0-.36v-.37a.71.71,0,0,0-.1-.31.57.57,0,0,0-.31-.26,2.39,2.39,0,0,0-.37-.15c0-.11.11-.21.16-.21h.52a1.5,1.5,0,0,0,.36-.11h1a2.2,2.2,0,0,1,.37.06,2.24,2.24,0,0,0,.52,0s.41,0,1.14-.11c.16,0,.62,0,1.3.06l.1.15,0,.16-.05.15c0,.42,0,.84-.1,1.2a.54.54,0,0,1-.16.1,4.79,4.79,0,0,1-.21-.57.43.43,0,0,0-.41-.36c-.06,0-.16,0-.21,0s-.16-.06-.21-.06h-.1a3.38,3.38,0,0,1-1.1,0h-.73l-.1.16a1.41,1.41,0,0,1,0,1.14v.89l.1.15H51l.2,0a.65.65,0,0,0,.21-.16c0-.15.16-.25.21-.41h.1l.16.1c0,.21-.05.47-.05.83a7.9,7.9,0,0,1-.1,1s-.11.11-.21,0a1.83,1.83,0,0,0-.26-.36.82.82,0,0,0-.37-.16c-.1,0-.2,0-.26-.1h-.78a1.12,1.12,0,0,1-.31,0,.65.65,0,0,1-.31-.05c-.21,0-.31.05-.37.15a.87.87,0,0,0-.1.31,1.5,1.5,0,0,0,.05.37c0,.15,0,.31,0,.41s0,.21,0,.32a1.06,1.06,0,0,0-.05.31v.15a1,1,0,0,0,.31.32.94.94,0,0,0,.47.2h1.14a1.91,1.91,0,0,0,.58-.1,2.36,2.36,0,0,0,.62-.47,1.68,1.68,0,0,0,.36-.67c.06.26.16.26.32.31Z"/></svg>